<?xml version="1.0" encoding="UTF-8"?>
<!DOCTYPE svg PUBLIC "-//W3C//DTD SVG 1.1//EN" "http://www.w3.org/Graphics/SVG/1.1/DTD/svg11.dtd">
<svg xmlns="http://www.w3.org/2000/svg" version="1.1" viewBox="0 0 65 65" stroke="none">
	<rect width="100%" height="100%" fill="#FFFFFF"/>
	<path d="M4,4h1v1h-1z M5,4h1v1h-1z M6,4h1v1h-1z M7,4h1v1h-1z M8,4h1v1h-1z M9,4h1v1h-1z M10,4h1v1h-1z M12,4h1v1h-1z M15,4h1v1h-1z M19,4h1v1h-1z M20,4h1v1h-1z M21,4h1v1h-1z M23,4h1v1h-1z M24,4h1v1h-1z M27,4h1v1h-1z M28,4h1v1h-1z M29,4h1v1h-1z M30,4h1v1h-1z M31,4h1v1h-1z M35,4h1v1h-1z M36,4h1v1h-1z M38,4h1v1h-1z M40,4h1v1h-1z M41,4h1v1h-1z M42,4h1v1h-1z M44,4h1v1h-1z M45,4h1v1h-1z M46,4h1v1h-1z M47,4h1v1h-1z M48,4h1v1h-1z M49,4h1v1h-1z M50,4h1v1h-1z M51,4h1v1h-1z M54,4h1v1h-1z M55,4h1v1h-1z M56,4h1v1h-1z M57,4h1v1h-1z M58,4h1v1h-1z M59,4h1v1h-1z M60,4h1v1h-1z M4,5h1v1h-1z M10,5h1v1h-1z M12,5h1v1h-1z M14,5h1v1h-1z M19,5h1v1h-1z M22,5h1v1h-1z M27,5h1v1h-1z M32,5h1v1h-1z M34,5h1v1h-1z M36,5h1v1h-1z M37,5h1v1h-1z M38,5h1v1h-1z M39,5h1v1h-1z M40,5h1v1h-1z M41,5h1v1h-1z M44,5h1v1h-1z M45,5h1v1h-1z M48,5h1v1h-1z M49,5h1v1h-1z M51,5h1v1h-1z M54,5h1v1h-1z M60,5h1v1h-1z M4,6h1v1h-1z M6,6h1v1h-1z M7,6h1v1h-1z M8,6h1v1h-1z M10,6h1v1h-1z M12,6h1v1h-1z M13,6h1v1h-1z M14,6h1v1h-1z M15,6h1v1h-1z M18,6h1v1h-1z M20,6h1v1h-1z M23,6h1v1h-1z M25,6h1v1h-1z M27,6h1v1h-1z M29,6h1v1h-1z M32,6h1v1h-1z M33,6h1v1h-1z M40,6h1v1h-1z M41,6h1v1h-1z M44,6h1v1h-1z M45,6h1v1h-1z M46,6h1v1h-1z M50,6h1v1h-1z M51,6h1v1h-1z M54,6h1v1h-1z M56,6h1v1h-1z M57,6h1v1h-1z M58,6h1v1h-1z M60,6h1v1h-1z M4,7h1v1h-1z M6,7h1v1h-1z M7,7h1v1h-1z M8,7h1v1h-1z M10,7h1v1h-1z M13,7h1v1h-1z M14,7h1v1h-1z M17,7h1v1h-1z M18,7h1v1h-1z M19,7h1v1h-1z M22,7h1v1h-1z M28,7h1v1h-1z M29,7h1v1h-1z M30,7h1v1h-1z M31,7h1v1h-1z M36,7h1v1h-1z M37,7h1v1h-1z M38,7h1v1h-1z M39,7h1v1h-1z M40,7h1v1h-1z M44,7h1v1h-1z M45,7h1v1h-1z M47,7h1v1h-1z M48,7h1v1h-1z M51,7h1v1h-1z M54,7h1v1h-1z M56,7h1v1h-1z M57,7h1v1h-1z M58,7h1v1h-1z M60,7h1v1h-1z M4,8h1v1h-1z M6,8h1v1h-1z M7,8h1v1h-1z M8,8h1v1h-1z M10,8h1v1h-1z M12,8h1v1h-1z M14,8h1v1h-1z M16,8h1v1h-1z M21,8h1v1h-1z M24,8h1v1h-1z M25,8h1v1h-1z M26,8h1v1h-1z M27,8h1v1h-1z M28,8h1v1h-1z M29,8h1v1h-1z M30,8h1v1h-1z M31,8h1v1h-1z M32,8h1v1h-1z M33,8h1v1h-1z M34,8h1v1h-1z M35,8h1v1h-1z M36,8h1v1h-1z M37,8h1v1h-1z M38,8h1v1h-1z M39,8h1v1h-1z M40,8h1v1h-1z M43,8h1v1h-1z M45,8h1v1h-1z M46,8h1v1h-1z M47,8h1v1h-1z M49,8h1v1h-1z M51,8h1v1h-1z M54,8h1v1h-1z M56,8h1v1h-1z M57,8h1v1h-1z M58,8h1v1h-1z M60,8h1v1h-1z M4,9h1v1h-1z M10,9h1v1h-1z M13,9h1v1h-1z M14,9h1v1h-1z M16,9h1v1h-1z M17,9h1v1h-1z M18,9h1v1h-1z M19,9h1v1h-1z M24,9h1v1h-1z M26,9h1v1h-1z M27,9h1v1h-1z M29,9h1v1h-1z M30,9h1v1h-1z M34,9h1v1h-1z M37,9h1v1h-1z M38,9h1v1h-1z M39,9h1v1h-1z M40,9h1v1h-1z M41,9h1v1h-1z M43,9h1v1h-1z M45,9h1v1h-1z M48,9h1v1h-1z M50,9h1v1h-1z M54,9h1v1h-1z M60,9h1v1h-1z M4,10h1v1h-1z M5,10h1v1h-1z M6,10h1v1h-1z M7,10h1v1h-1z M8,10h1v1h-1z M9,10h1v1h-1z M10,10h1v1h-1z M12,10h1v1h-1z M14,10h1v1h-1z M16,10h1v1h-1z M18,10h1v1h-1z M20,10h1v1h-1z M22,10h1v1h-1z M24,10h1v1h-1z M26,10h1v1h-1z M28,10h1v1h-1z M30,10h1v1h-1z M32,10h1v1h-1z M34,10h1v1h-1z M36,10h1v1h-1z M38,10h1v1h-1z M40,10h1v1h-1z M42,10h1v1h-1z M44,10h1v1h-1z M46,10h1v1h-1z M48,10h1v1h-1z M50,10h1v1h-1z M52,10h1v1h-1z M54,10h1v1h-1z M55,10h1v1h-1z M56,10h1v1h-1z M57,10h1v1h-1z M58,10h1v1h-1z M59,10h1v1h-1z M60,10h1v1h-1z M13,11h1v1h-1z M15,11h1v1h-1z M19,11h1v1h-1z M22,11h1v1h-1z M24,11h1v1h-1z M25,11h1v1h-1z M27,11h1v1h-1z M28,11h1v1h-1z M29,11h1v1h-1z M30,11h1v1h-1z M34,11h1v1h-1z M35,11h1v1h-1z M37,11h1v1h-1z M38,11h1v1h-1z M40,11h1v1h-1z M41,11h1v1h-1z M43,11h1v1h-1z M45,11h1v1h-1z M46,11h1v1h-1z M49,11h1v1h-1z M52,11h1v1h-1z M4,12h1v1h-1z M7,12h1v1h-1z M8,12h1v1h-1z M9,12h1v1h-1z M10,12h1v1h-1z M11,12h1v1h-1z M12,12h1v1h-1z M16,12h1v1h-1z M20,12h1v1h-1z M22,12h1v1h-1z M23,12h1v1h-1z M24,12h1v1h-1z M25,12h1v1h-1z M26,12h1v1h-1z M27,12h1v1h-1z M28,12h1v1h-1z M30,12h1v1h-1z M31,12h1v1h-1z M32,12h1v1h-1z M33,12h1v1h-1z M34,12h1v1h-1z M35,12h1v1h-1z M36,12h1v1h-1z M37,12h1v1h-1z M40,12h1v1h-1z M43,12h1v1h-1z M45,12h1v1h-1z M46,12h1v1h-1z M47,12h1v1h-1z M48,12h1v1h-1z M49,12h1v1h-1z M53,12h1v1h-1z M56,12h1v1h-1z M58,12h1v1h-1z M59,12h1v1h-1z M60,12h1v1h-1z M6,13h1v1h-1z M7,13h1v1h-1z M11,13h1v1h-1z M14,13h1v1h-1z M15,13h1v1h-1z M17,13h1v1h-1z M22,13h1v1h-1z M25,13h1v1h-1z M26,13h1v1h-1z M28,13h1v1h-1z M32,13h1v1h-1z M34,13h1v1h-1z M36,13h1v1h-1z M37,13h1v1h-1z M40,13h1v1h-1z M41,13h1v1h-1z M42,13h1v1h-1z M43,13h1v1h-1z M44,13h1v1h-1z M47,13h1v1h-1z M51,13h1v1h-1z M52,13h1v1h-1z M57,13h1v1h-1z M58,13h1v1h-1z M4,14h1v1h-1z M10,14h1v1h-1z M12,14h1v1h-1z M16,14h1v1h-1z M23,14h1v1h-1z M24,14h1v1h-1z M26,14h1v1h-1z M27,14h1v1h-1z M32,14h1v1h-1z M34,14h1v1h-1z M35,14h1v1h-1z M37,14h1v1h-1z M40,14h1v1h-1z M43,14h1v1h-1z M46,14h1v1h-1z M47,14h1v1h-1z M53,14h1v1h-1z M54,14h1v1h-1z M55,14h1v1h-1z M57,14h1v1h-1z M59,14h1v1h-1z M5,15h1v1h-1z M6,15h1v1h-1z M11,15h1v1h-1z M12,15h1v1h-1z M13,15h1v1h-1z M14,15h1v1h-1z M18,15h1v1h-1z M20,15h1v1h-1z M22,15h1v1h-1z M31,15h1v1h-1z M32,15h1v1h-1z M33,15h1v1h-1z M34,15h1v1h-1z M35,15h1v1h-1z M36,15h1v1h-1z M38,15h1v1h-1z M39,15h1v1h-1z M40,15h1v1h-1z M44,15h1v1h-1z M47,15h1v1h-1z M48,15h1v1h-1z M49,15h1v1h-1z M51,15h1v1h-1z M53,15h1v1h-1z M57,15h1v1h-1z M4,16h1v1h-1z M7,16h1v1h-1z M9,16h1v1h-1z M10,16h1v1h-1z M13,16h1v1h-1z M15,16h1v1h-1z M18,16h1v1h-1z M21,16h1v1h-1z M22,16h1v1h-1z M27,16h1v1h-1z M28,16h1v1h-1z M29,16h1v1h-1z M31,16h1v1h-1z M32,16h1v1h-1z M33,16h1v1h-1z M34,16h1v1h-1z M37,16h1v1h-1z M38,16h1v1h-1z M39,16h1v1h-1z M40,16h1v1h-1z M41,16h1v1h-1z M45,16h1v1h-1z M46,16h1v1h-1z M48,16h1v1h-1z M50,16h1v1h-1z M52,16h1v1h-1z M53,16h1v1h-1z M54,16h1v1h-1z M55,16h1v1h-1z M56,16h1v1h-1z M57,16h1v1h-1z M58,16h1v1h-1z M60,16h1v1h-1z M6,17h1v1h-1z M7,17h1v1h-1z M8,17h1v1h-1z M12,17h1v1h-1z M13,17h1v1h-1z M15,17h1v1h-1z M16,17h1v1h-1z M22,17h1v1h-1z M23,17h1v1h-1z M24,17h1v1h-1z M27,17h1v1h-1z M31,17h1v1h-1z M33,17h1v1h-1z M40,17h1v1h-1z M41,17h1v1h-1z M43,17h1v1h-1z M45,17h1v1h-1z M47,17h1v1h-1z M49,17h1v1h-1z M50,17h1v1h-1z M51,17h1v1h-1z M54,17h1v1h-1z M55,17h1v1h-1z M56,17h1v1h-1z M57,17h1v1h-1z M58,17h1v1h-1z M59,17h1v1h-1z M4,18h1v1h-1z M6,18h1v1h-1z M10,18h1v1h-1z M12,18h1v1h-1z M13,18h1v1h-1z M14,18h1v1h-1z M16,18h1v1h-1z M17,18h1v1h-1z M18,18h1v1h-1z M25,18h1v1h-1z M26,18h1v1h-1z M29,18h1v1h-1z M30,18h1v1h-1z M31,18h1v1h-1z M32,18h1v1h-1z M35,18h1v1h-1z M36,18h1v1h-1z M38,18h1v1h-1z M40,18h1v1h-1z M44,18h1v1h-1z M50,18h1v1h-1z M51,18h1v1h-1z M54,18h1v1h-1z M55,18h1v1h-1z M56,18h1v1h-1z M57,18h1v1h-1z M58,18h1v1h-1z M59,18h1v1h-1z M4,19h1v1h-1z M6,19h1v1h-1z M7,19h1v1h-1z M8,19h1v1h-1z M11,19h1v1h-1z M14,19h1v1h-1z M15,19h1v1h-1z M17,19h1v1h-1z M19,19h1v1h-1z M20,19h1v1h-1z M21,19h1v1h-1z M22,19h1v1h-1z M25,19h1v1h-1z M27,19h1v1h-1z M29,19h1v1h-1z M35,19h1v1h-1z M37,19h1v1h-1z M41,19h1v1h-1z M43,19h1v1h-1z M44,19h1v1h-1z M46,19h1v1h-1z M48,19h1v1h-1z M49,19h1v1h-1z M52,19h1v1h-1z M53,19h1v1h-1z M55,19h1v1h-1z M58,19h1v1h-1z M59,19h1v1h-1z M4,20h1v1h-1z M6,20h1v1h-1z M7,20h1v1h-1z M8,20h1v1h-1z M9,20h1v1h-1z M10,20h1v1h-1z M16,20h1v1h-1z M17,20h1v1h-1z M22,20h1v1h-1z M24,20h1v1h-1z M25,20h1v1h-1z M27,20h1v1h-1z M30,20h1v1h-1z M31,20h1v1h-1z M34,20h1v1h-1z M36,20h1v1h-1z M38,20h1v1h-1z M39,20h1v1h-1z M40,20h1v1h-1z M41,20h1v1h-1z M42,20h1v1h-1z M44,20h1v1h-1z M45,20h1v1h-1z M46,20h1v1h-1z M48,20h1v1h-1z M51,20h1v1h-1z M53,20h1v1h-1z M55,20h1v1h-1z M57,20h1v1h-1z M58,20h1v1h-1z M59,20h1v1h-1z M6,21h1v1h-1z M8,21h1v1h-1z M9,21h1v1h-1z M11,21h1v1h-1z M12,21h1v1h-1z M14,21h1v1h-1z M16,21h1v1h-1z M17,21h1v1h-1z M20,21h1v1h-1z M21,21h1v1h-1z M23,21h1v1h-1z M27,21h1v1h-1z M29,21h1v1h-1z M30,21h1v1h-1z M35,21h1v1h-1z M36,21h1v1h-1z M39,21h1v1h-1z M41,21h1v1h-1z M42,21h1v1h-1z M44,21h1v1h-1z M46,21h1v1h-1z M50,21h1v1h-1z M51,21h1v1h-1z M55,21h1v1h-1z M60,21h1v1h-1z M7,22h1v1h-1z M8,22h1v1h-1z M9,22h1v1h-1z M10,22h1v1h-1z M14,22h1v1h-1z M21,22h1v1h-1z M26,22h1v1h-1z M29,22h1v1h-1z M31,22h1v1h-1z M34,22h1v1h-1z M37,22h1v1h-1z M38,22h1v1h-1z M41,22h1v1h-1z M42,22h1v1h-1z M44,22h1v1h-1z M45,22h1v1h-1z M46,22h1v1h-1z M51,22h1v1h-1z M52,22h1v1h-1z M54,22h1v1h-1z M56,22h1v1h-1z M58,22h1v1h-1z M60,22h1v1h-1z M6,23h1v1h-1z M12,23h1v1h-1z M14,23h1v1h-1z M18,23h1v1h-1z M20,23h1v1h-1z M22,23h1v1h-1z M24,23h1v1h-1z M25,23h1v1h-1z M26,23h1v1h-1z M27,23h1v1h-1z M28,23h1v1h-1z M29,23h1v1h-1z M32,23h1v1h-1z M33,23h1v1h-1z M39,23h1v1h-1z M40,23h1v1h-1z M42,23h1v1h-1z M46,23h1v1h-1z M48,23h1v1h-1z M50,23h1v1h-1z M51,23h1v1h-1z M52,23h1v1h-1z M54,23h1v1h-1z M57,23h1v1h-1z M58,23h1v1h-1z M60,23h1v1h-1z M5,24h1v1h-1z M6,24h1v1h-1z M7,24h1v1h-1z M9,24h1v1h-1z M10,24h1v1h-1z M12,24h1v1h-1z M16,24h1v1h-1z M17,24h1v1h-1z M19,24h1v1h-1z M22,24h1v1h-1z M24,24h1v1h-1z M26,24h1v1h-1z M29,24h1v1h-1z M31,24h1v1h-1z M36,24h1v1h-1z M37,24h1v1h-1z M38,24h1v1h-1z M44,24h1v1h-1z M45,24h1v1h-1z M46,24h1v1h-1z M48,24h1v1h-1z M49,24h1v1h-1z M53,24h1v1h-1z M55,24h1v1h-1z M57,24h1v1h-1z M5,25h1v1h-1z M9,25h1v1h-1z M12,25h1v1h-1z M13,25h1v1h-1z M20,25h1v1h-1z M21,25h1v1h-1z M22,25h1v1h-1z M23,25h1v1h-1z M25,25h1v1h-1z M26,25h1v1h-1z M27,25h1v1h-1z M29,25h1v1h-1z M30,25h1v1h-1z M31,25h1v1h-1z M32,25h1v1h-1z M33,25h1v1h-1z M36,25h1v1h-1z M37,25h1v1h-1z M41,25h1v1h-1z M42,25h1v1h-1z M43,25h1v1h-1z M45,25h1v1h-1z M48,25h1v1h-1z M52,25h1v1h-1z M53,25h1v1h-1z M58,25h1v1h-1z M8,26h1v1h-1z M10,26h1v1h-1z M11,26h1v1h-1z M13,26h1v1h-1z M14,26h1v1h-1z M15,26h1v1h-1z M16,26h1v1h-1z M17,26h1v1h-1z M18,26h1v1h-1z M20,26h1v1h-1z M23,26h1v1h-1z M24,26h1v1h-1z M26,26h1v1h-1z M27,26h1v1h-1z M29,26h1v1h-1z M30,26h1v1h-1z M33,26h1v1h-1z M34,26h1v1h-1z M36,26h1v1h-1z M37,26h1v1h-1z M40,26h1v1h-1z M42,26h1v1h-1z M45,26h1v1h-1z M47,26h1v1h-1z M48,26h1v1h-1z M49,26h1v1h-1z M50,26h1v1h-1z M51,26h1v1h-1z M54,26h1v1h-1z M55,26h1v1h-1z M56,26h1v1h-1z M57,26h1v1h-1z M58,26h1v1h-1z M4,27h1v1h-1z M5,27h1v1h-1z M7,27h1v1h-1z M11,27h1v1h-1z M12,27h1v1h-1z M15,27h1v1h-1z M16,27h1v1h-1z M18,27h1v1h-1z M23,27h1v1h-1z M25,27h1v1h-1z M27,27h1v1h-1z M28,27h1v1h-1z M29,27h1v1h-1z M31,27h1v1h-1z M33,27h1v1h-1z M34,27h1v1h-1z M40,27h1v1h-1z M42,27h1v1h-1z M43,27h1v1h-1z M46,27h1v1h-1z M49,27h1v1h-1z M51,27h1v1h-1z M53,27h1v1h-1z M54,27h1v1h-1z M59,27h1v1h-1z M4,28h1v1h-1z M5,28h1v1h-1z M6,28h1v1h-1z M7,28h1v1h-1z M8,28h1v1h-1z M10,28h1v1h-1z M11,28h1v1h-1z M12,28h1v1h-1z M17,28h1v1h-1z M20,28h1v1h-1z M22,28h1v1h-1z M23,28h1v1h-1z M24,28h1v1h-1z M26,28h1v1h-1z M30,28h1v1h-1z M31,28h1v1h-1z M34,28h1v1h-1z M37,28h1v1h-1z M38,28h1v1h-1z M40,28h1v1h-1z M43,28h1v1h-1z M46,28h1v1h-1z M49,28h1v1h-1z M52,28h1v1h-1z M53,28h1v1h-1z M54,28h1v1h-1z M55,28h1v1h-1z M59,28h1v1h-1z M4,29h1v1h-1z M5,29h1v1h-1z M9,29h1v1h-1z M11,29h1v1h-1z M15,29h1v1h-1z M16,29h1v1h-1z M18,29h1v1h-1z M19,29h1v1h-1z M20,29h1v1h-1z M21,29h1v1h-1z M24,29h1v1h-1z M28,29h1v1h-1z M32,29h1v1h-1z M34,29h1v1h-1z M35,29h1v1h-1z M38,29h1v1h-1z M42,29h1v1h-1z M43,29h1v1h-1z M44,29h1v1h-1z M45,29h1v1h-1z M46,29h1v1h-1z M48,29h1v1h-1z M52,29h1v1h-1z M53,29h1v1h-1z M54,29h1v1h-1z M56,29h1v1h-1z M57,29h1v1h-1z M58,29h1v1h-1z M59,29h1v1h-1z M7,30h1v1h-1z M8,30h1v1h-1z M9,30h1v1h-1z M10,30h1v1h-1z M11,30h1v1h-1z M12,30h1v1h-1z M13,30h1v1h-1z M16,30h1v1h-1z M18,30h1v1h-1z M20,30h1v1h-1z M21,30h1v1h-1z M23,30h1v1h-1z M26,30h1v1h-1z M27,30h1v1h-1z M29,30h1v1h-1z M30,30h1v1h-1z M31,30h1v1h-1z M32,30h1v1h-1z M33,30h1v1h-1z M34,30h1v1h-1z M36,30h1v1h-1z M39,30h1v1h-1z M40,30h1v1h-1z M43,30h1v1h-1z M46,30h1v1h-1z M52,30h1v1h-1z M53,30h1v1h-1z M54,30h1v1h-1z M55,30h1v1h-1z M56,30h1v1h-1z M57,30h1v1h-1z M58,30h1v1h-1z M5,31h1v1h-1z M7,31h1v1h-1z M8,31h1v1h-1z M12,31h1v1h-1z M14,31h1v1h-1z M15,31h1v1h-1z M16,31h1v1h-1z M17,31h1v1h-1z M18,31h1v1h-1z M20,31h1v1h-1z M22,31h1v1h-1z M23,31h1v1h-1z M24,31h1v1h-1z M25,31h1v1h-1z M28,31h1v1h-1z M29,31h1v1h-1z M30,31h1v1h-1z M34,31h1v1h-1z M35,31h1v1h-1z M38,31h1v1h-1z M39,31h1v1h-1z M40,31h1v1h-1z M44,31h1v1h-1z M45,31h1v1h-1z M47,31h1v1h-1z M49,31h1v1h-1z M50,31h1v1h-1z M52,31h1v1h-1z M56,31h1v1h-1z M58,31h1v1h-1z M6,32h1v1h-1z M8,32h1v1h-1z M10,32h1v1h-1z M12,32h1v1h-1z M13,32h1v1h-1z M14,32h1v1h-1z M16,32h1v1h-1z M18,32h1v1h-1z M19,32h1v1h-1z M20,32h1v1h-1z M22,32h1v1h-1z M23,32h1v1h-1z M25,32h1v1h-1z M26,32h1v1h-1z M27,32h1v1h-1z M29,32h1v1h-1z M30,32h1v1h-1z M32,32h1v1h-1z M34,32h1v1h-1z M39,32h1v1h-1z M45,32h1v1h-1z M46,32h1v1h-1z M47,32h1v1h-1z M48,32h1v1h-1z M51,32h1v1h-1z M52,32h1v1h-1z M54,32h1v1h-1z M56,32h1v1h-1z M57,32h1v1h-1z M60,32h1v1h-1z M6,33h1v1h-1z M7,33h1v1h-1z M8,33h1v1h-1z M12,33h1v1h-1z M13,33h1v1h-1z M21,33h1v1h-1z M22,33h1v1h-1z M24,33h1v1h-1z M25,33h1v1h-1z M27,33h1v1h-1z M28,33h1v1h-1z M30,33h1v1h-1z M34,33h1v1h-1z M35,33h1v1h-1z M38,33h1v1h-1z M39,33h1v1h-1z M42,33h1v1h-1z M43,33h1v1h-1z M44,33h1v1h-1z M45,33h1v1h-1z M49,33h1v1h-1z M50,33h1v1h-1z M52,33h1v1h-1z M56,33h1v1h-1z M4,34h1v1h-1z M5,34h1v1h-1z M8,34h1v1h-1z M9,34h1v1h-1z M10,34h1v1h-1z M11,34h1v1h-1z M12,34h1v1h-1z M18,34h1v1h-1z M19,34h1v1h-1z M22,34h1v1h-1z M24,34h1v1h-1z M25,34h1v1h-1z M28,34h1v1h-1z M30,34h1v1h-1z M31,34h1v1h-1z M32,34h1v1h-1z M33,34h1v1h-1z M34,34h1v1h-1z M36,34h1v1h-1z M38,34h1v1h-1z M41,34h1v1h-1z M43,34h1v1h-1z M44,34h1v1h-1z M46,34h1v1h-1z M52,34h1v1h-1z M53,34h1v1h-1z M54,34h1v1h-1z M55,34h1v1h-1z M56,34h1v1h-1z M58,34h1v1h-1z M59,34h1v1h-1z M5,35h1v1h-1z M9,35h1v1h-1z M12,35h1v1h-1z M13,35h1v1h-1z M15,35h1v1h-1z M17,35h1v1h-1z M18,35h1v1h-1z M19,35h1v1h-1z M22,35h1v1h-1z M23,35h1v1h-1z M24,35h1v1h-1z M25,35h1v1h-1z M26,35h1v1h-1z M28,35h1v1h-1z M34,35h1v1h-1z M35,35h1v1h-1z M38,35h1v1h-1z M40,35h1v1h-1z M46,35h1v1h-1z M49,35h1v1h-1z M51,35h1v1h-1z M53,35h1v1h-1z M56,35h1v1h-1z M57,35h1v1h-1z M58,35h1v1h-1z M60,35h1v1h-1z M4,36h1v1h-1z M5,36h1v1h-1z M7,36h1v1h-1z M8,36h1v1h-1z M10,36h1v1h-1z M11,36h1v1h-1z M12,36h1v1h-1z M15,36h1v1h-1z M19,36h1v1h-1z M23,36h1v1h-1z M26,36h1v1h-1z M27,36h1v1h-1z M28,36h1v1h-1z M29,36h1v1h-1z M30,36h1v1h-1z M31,36h1v1h-1z M33,36h1v1h-1z M37,36h1v1h-1z M41,36h1v1h-1z M42,36h1v1h-1z M43,36h1v1h-1z M44,36h1v1h-1z M47,36h1v1h-1z M49,36h1v1h-1z M50,36h1v1h-1z M53,36h1v1h-1z M56,36h1v1h-1z M59,36h1v1h-1z M60,36h1v1h-1z M4,37h1v1h-1z M5,37h1v1h-1z M8,37h1v1h-1z M9,37h1v1h-1z M13,37h1v1h-1z M15,37h1v1h-1z M18,37h1v1h-1z M21,37h1v1h-1z M22,37h1v1h-1z M23,37h1v1h-1z M25,37h1v1h-1z M26,37h1v1h-1z M28,37h1v1h-1z M29,37h1v1h-1z M31,37h1v1h-1z M32,37h1v1h-1z M33,37h1v1h-1z M34,37h1v1h-1z M36,37h1v1h-1z M37,37h1v1h-1z M39,37h1v1h-1z M42,37h1v1h-1z M44,37h1v1h-1z M45,37h1v1h-1z M46,37h1v1h-1z M48,37h1v1h-1z M52,37h1v1h-1z M53,37h1v1h-1z M57,37h1v1h-1z M5,38h1v1h-1z M6,38h1v1h-1z M7,38h1v1h-1z M8,38h1v1h-1z M9,38h1v1h-1z M10,38h1v1h-1z M11,38h1v1h-1z M12,38h1v1h-1z M13,38h1v1h-1z M15,38h1v1h-1z M16,38h1v1h-1z M18,38h1v1h-1z M21,38h1v1h-1z M22,38h1v1h-1z M24,38h1v1h-1z M26,38h1v1h-1z M28,38h1v1h-1z M30,38h1v1h-1z M31,38h1v1h-1z M32,38h1v1h-1z M33,38h1v1h-1z M34,38h1v1h-1z M36,38h1v1h-1z M37,38h1v1h-1z M39,38h1v1h-1z M42,38h1v1h-1z M44,38h1v1h-1z M45,38h1v1h-1z M46,38h1v1h-1z M49,38h1v1h-1z M50,38h1v1h-1z M51,38h1v1h-1z M52,38h1v1h-1z M53,38h1v1h-1z M54,38h1v1h-1z M56,38h1v1h-1z M57,38h1v1h-1z M4,39h1v1h-1z M6,39h1v1h-1z M7,39h1v1h-1z M8,39h1v1h-1z M11,39h1v1h-1z M15,39h1v1h-1z M16,39h1v1h-1z M17,39h1v1h-1z M19,39h1v1h-1z M21,39h1v1h-1z M23,39h1v1h-1z M27,39h1v1h-1z M28,39h1v1h-1z M31,39h1v1h-1z M33,39h1v1h-1z M36,39h1v1h-1z M39,39h1v1h-1z M40,39h1v1h-1z M41,39h1v1h-1z M42,39h1v1h-1z M43,39h1v1h-1z M46,39h1v1h-1z M48,39h1v1h-1z M50,39h1v1h-1z M52,39h1v1h-1z M53,39h1v1h-1z M55,39h1v1h-1z M57,39h1v1h-1z M59,39h1v1h-1z M60,39h1v1h-1z M5,40h1v1h-1z M6,40h1v1h-1z M7,40h1v1h-1z M10,40h1v1h-1z M15,40h1v1h-1z M21,40h1v1h-1z M24,40h1v1h-1z M26,40h1v1h-1z M28,40h1v1h-1z M29,40h1v1h-1z M30,40h1v1h-1z M31,40h1v1h-1z M32,40h1v1h-1z M34,40h1v1h-1z M36,40h1v1h-1z M38,40h1v1h-1z M39,40h1v1h-1z M41,40h1v1h-1z M42,40h1v1h-1z M43,40h1v1h-1z M44,40h1v1h-1z M45,40h1v1h-1z M48,40h1v1h-1z M49,40h1v1h-1z M51,40h1v1h-1z M52,40h1v1h-1z M53,40h1v1h-1z M54,40h1v1h-1z M55,40h1v1h-1z M58,40h1v1h-1z M59,40h1v1h-1z M60,40h1v1h-1z M6,41h1v1h-1z M7,41h1v1h-1z M9,41h1v1h-1z M11,41h1v1h-1z M13,41h1v1h-1z M15,41h1v1h-1z M20,41h1v1h-1z M21,41h1v1h-1z M23,41h1v1h-1z M24,41h1v1h-1z M25,41h1v1h-1z M26,41h1v1h-1z M27,41h1v1h-1z M29,41h1v1h-1z M31,41h1v1h-1z M32,41h1v1h-1z M33,41h1v1h-1z M34,41h1v1h-1z M36,41h1v1h-1z M37,41h1v1h-1z M39,41h1v1h-1z M43,41h1v1h-1z M45,41h1v1h-1z M46,41h1v1h-1z M49,41h1v1h-1z M50,41h1v1h-1z M53,41h1v1h-1z M55,41h1v1h-1z M57,41h1v1h-1z M59,41h1v1h-1z M4,42h1v1h-1z M8,42h1v1h-1z M10,42h1v1h-1z M12,42h1v1h-1z M13,42h1v1h-1z M14,42h1v1h-1z M16,42h1v1h-1z M19,42h1v1h-1z M20,42h1v1h-1z M21,42h1v1h-1z M22,42h1v1h-1z M27,42h1v1h-1z M28,42h1v1h-1z M29,42h1v1h-1z M31,42h1v1h-1z M34,42h1v1h-1z M36,42h1v1h-1z M37,42h1v1h-1z M39,42h1v1h-1z M40,42h1v1h-1z M45,42h1v1h-1z M47,42h1v1h-1z M50,42h1v1h-1z M51,42h1v1h-1z M52,42h1v1h-1z M53,42h1v1h-1z M54,42h1v1h-1z M55,42h1v1h-1z M58,42h1v1h-1z M5,43h1v1h-1z M6,43h1v1h-1z M8,43h1v1h-1z M9,43h1v1h-1z M11,43h1v1h-1z M14,43h1v1h-1z M18,43h1v1h-1z M19,43h1v1h-1z M20,43h1v1h-1z M21,43h1v1h-1z M22,43h1v1h-1z M24,43h1v1h-1z M26,43h1v1h-1z M29,43h1v1h-1z M31,43h1v1h-1z M34,43h1v1h-1z M35,43h1v1h-1z M38,43h1v1h-1z M40,43h1v1h-1z M41,43h1v1h-1z M44,43h1v1h-1z M47,43h1v1h-1z M49,43h1v1h-1z M50,43h1v1h-1z M52,43h1v1h-1z M53,43h1v1h-1z M54,43h1v1h-1z M56,43h1v1h-1z M57,43h1v1h-1z M58,43h1v1h-1z M60,43h1v1h-1z M5,44h1v1h-1z M6,44h1v1h-1z M7,44h1v1h-1z M8,44h1v1h-1z M9,44h1v1h-1z M10,44h1v1h-1z M11,44h1v1h-1z M12,44h1v1h-1z M13,44h1v1h-1z M15,44h1v1h-1z M16,44h1v1h-1z M17,44h1v1h-1z M19,44h1v1h-1z M21,44h1v1h-1z M22,44h1v1h-1z M24,44h1v1h-1z M27,44h1v1h-1z M29,44h1v1h-1z M30,44h1v1h-1z M31,44h1v1h-1z M32,44h1v1h-1z M33,44h1v1h-1z M34,44h1v1h-1z M36,44h1v1h-1z M37,44h1v1h-1z M40,44h1v1h-1z M42,44h1v1h-1z M43,44h1v1h-1z M45,44h1v1h-1z M47,44h1v1h-1z M48,44h1v1h-1z M49,44h1v1h-1z M56,44h1v1h-1z M60,44h1v1h-1z M5,45h1v1h-1z M6,45h1v1h-1z M7,45h1v1h-1z M16,45h1v1h-1z M19,45h1v1h-1z M21,45h1v1h-1z M23,45h1v1h-1z M28,45h1v1h-1z M29,45h1v1h-1z M30,45h1v1h-1z M31,45h1v1h-1z M37,45h1v1h-1z M39,45h1v1h-1z M40,45h1v1h-1z M44,45h1v1h-1z M46,45h1v1h-1z M47,45h1v1h-1z M48,45h1v1h-1z M51,45h1v1h-1z M52,45h1v1h-1z M54,45h1v1h-1z M60,45h1v1h-1z M6,46h1v1h-1z M8,46h1v1h-1z M10,46h1v1h-1z M11,46h1v1h-1z M12,46h1v1h-1z M14,46h1v1h-1z M15,46h1v1h-1z M17,46h1v1h-1z M18,46h1v1h-1z M30,46h1v1h-1z M31,46h1v1h-1z M32,46h1v1h-1z M33,46h1v1h-1z M34,46h1v1h-1z M40,46h1v1h-1z M42,46h1v1h-1z M43,46h1v1h-1z M46,46h1v1h-1z M47,46h1v1h-1z M52,46h1v1h-1z M53,46h1v1h-1z M54,46h1v1h-1z M55,46h1v1h-1z M56,46h1v1h-1z M58,46h1v1h-1z M5,47h1v1h-1z M7,47h1v1h-1z M8,47h1v1h-1z M9,47h1v1h-1z M13,47h1v1h-1z M17,47h1v1h-1z M18,47h1v1h-1z M25,47h1v1h-1z M26,47h1v1h-1z M27,47h1v1h-1z M28,47h1v1h-1z M32,47h1v1h-1z M36,47h1v1h-1z M37,47h1v1h-1z M42,47h1v1h-1z M43,47h1v1h-1z M47,47h1v1h-1z M48,47h1v1h-1z M50,47h1v1h-1z M56,47h1v1h-1z M59,47h1v1h-1z M60,47h1v1h-1z M4,48h1v1h-1z M10,48h1v1h-1z M11,48h1v1h-1z M12,48h1v1h-1z M15,48h1v1h-1z M19,48h1v1h-1z M22,48h1v1h-1z M23,48h1v1h-1z M25,48h1v1h-1z M26,48h1v1h-1z M27,48h1v1h-1z M32,48h1v1h-1z M34,48h1v1h-1z M35,48h1v1h-1z M47,48h1v1h-1z M48,48h1v1h-1z M52,48h1v1h-1z M56,48h1v1h-1z M58,48h1v1h-1z M60,48h1v1h-1z M7,49h1v1h-1z M11,49h1v1h-1z M12,49h1v1h-1z M19,49h1v1h-1z M20,49h1v1h-1z M24,49h1v1h-1z M28,49h1v1h-1z M29,49h1v1h-1z M33,49h1v1h-1z M34,49h1v1h-1z M35,49h1v1h-1z M36,49h1v1h-1z M37,49h1v1h-1z M38,49h1v1h-1z M39,49h1v1h-1z M40,49h1v1h-1z M42,49h1v1h-1z M44,49h1v1h-1z M52,49h1v1h-1z M53,49h1v1h-1z M55,49h1v1h-1z M58,49h1v1h-1z M59,49h1v1h-1z M4,50h1v1h-1z M6,50h1v1h-1z M9,50h1v1h-1z M10,50h1v1h-1z M11,50h1v1h-1z M13,50h1v1h-1z M16,50h1v1h-1z M18,50h1v1h-1z M22,50h1v1h-1z M23,50h1v1h-1z M24,50h1v1h-1z M25,50h1v1h-1z M27,50h1v1h-1z M28,50h1v1h-1z M29,50h1v1h-1z M31,50h1v1h-1z M33,50h1v1h-1z M34,50h1v1h-1z M36,50h1v1h-1z M39,50h1v1h-1z M41,50h1v1h-1z M42,50h1v1h-1z M43,50h1v1h-1z M44,50h1v1h-1z M51,50h1v1h-1z M52,50h1v1h-1z M53,50h1v1h-1z M54,50h1v1h-1z M55,50h1v1h-1z M56,50h1v1h-1z M58,50h1v1h-1z M4,51h1v1h-1z M5,51h1v1h-1z M6,51h1v1h-1z M7,51h1v1h-1z M8,51h1v1h-1z M11,51h1v1h-1z M14,51h1v1h-1z M15,51h1v1h-1z M17,51h1v1h-1z M22,51h1v1h-1z M23,51h1v1h-1z M25,51h1v1h-1z M26,51h1v1h-1z M29,51h1v1h-1z M30,51h1v1h-1z M34,51h1v1h-1z M35,51h1v1h-1z M37,51h1v1h-1z M39,51h1v1h-1z M41,51h1v1h-1z M43,51h1v1h-1z M46,51h1v1h-1z M50,51h1v1h-1z M51,51h1v1h-1z M53,51h1v1h-1z M56,51h1v1h-1z M58,51h1v1h-1z M10,52h1v1h-1z M11,52h1v1h-1z M12,52h1v1h-1z M13,52h1v1h-1z M14,52h1v1h-1z M19,52h1v1h-1z M20,52h1v1h-1z M22,52h1v1h-1z M24,52h1v1h-1z M25,52h1v1h-1z M27,52h1v1h-1z M29,52h1v1h-1z M30,52h1v1h-1z M31,52h1v1h-1z M32,52h1v1h-1z M33,52h1v1h-1z M34,52h1v1h-1z M36,52h1v1h-1z M37,52h1v1h-1z M39,52h1v1h-1z M41,52h1v1h-1z M43,52h1v1h-1z M48,52h1v1h-1z M50,52h1v1h-1z M52,52h1v1h-1z M53,52h1v1h-1z M54,52h1v1h-1z M55,52h1v1h-1z M56,52h1v1h-1z M57,52h1v1h-1z M58,52h1v1h-1z M60,52h1v1h-1z M12,53h1v1h-1z M17,53h1v1h-1z M18,53h1v1h-1z M24,53h1v1h-1z M25,53h1v1h-1z M29,53h1v1h-1z M30,53h1v1h-1z M34,53h1v1h-1z M35,53h1v1h-1z M37,53h1v1h-1z M38,53h1v1h-1z M39,53h1v1h-1z M40,53h1v1h-1z M41,53h1v1h-1z M42,53h1v1h-1z M43,53h1v1h-1z M46,53h1v1h-1z M47,53h1v1h-1z M48,53h1v1h-1z M50,53h1v1h-1z M52,53h1v1h-1z M56,53h1v1h-1z M57,53h1v1h-1z M59,53h1v1h-1z M60,53h1v1h-1z M4,54h1v1h-1z M5,54h1v1h-1z M6,54h1v1h-1z M7,54h1v1h-1z M8,54h1v1h-1z M9,54h1v1h-1z M10,54h1v1h-1z M12,54h1v1h-1z M16,54h1v1h-1z M18,54h1v1h-1z M21,54h1v1h-1z M22,54h1v1h-1z M23,54h1v1h-1z M24,54h1v1h-1z M28,54h1v1h-1z M30,54h1v1h-1z M32,54h1v1h-1z M34,54h1v1h-1z M35,54h1v1h-1z M37,54h1v1h-1z M38,54h1v1h-1z M41,54h1v1h-1z M43,54h1v1h-1z M46,54h1v1h-1z M47,54h1v1h-1z M48,54h1v1h-1z M49,54h1v1h-1z M52,54h1v1h-1z M54,54h1v1h-1z M56,54h1v1h-1z M58,54h1v1h-1z M59,54h1v1h-1z M4,55h1v1h-1z M10,55h1v1h-1z M12,55h1v1h-1z M14,55h1v1h-1z M15,55h1v1h-1z M17,55h1v1h-1z M18,55h1v1h-1z M20,55h1v1h-1z M21,55h1v1h-1z M22,55h1v1h-1z M25,55h1v1h-1z M26,55h1v1h-1z M27,55h1v1h-1z M30,55h1v1h-1z M34,55h1v1h-1z M36,55h1v1h-1z M37,55h1v1h-1z M38,55h1v1h-1z M41,55h1v1h-1z M43,55h1v1h-1z M45,55h1v1h-1z M46,55h1v1h-1z M47,55h1v1h-1z M49,55h1v1h-1z M51,55h1v1h-1z M52,55h1v1h-1z M56,55h1v1h-1z M57,55h1v1h-1z M58,55h1v1h-1z M59,55h1v1h-1z M4,56h1v1h-1z M6,56h1v1h-1z M7,56h1v1h-1z M8,56h1v1h-1z M10,56h1v1h-1z M12,56h1v1h-1z M13,56h1v1h-1z M14,56h1v1h-1z M18,56h1v1h-1z M19,56h1v1h-1z M23,56h1v1h-1z M24,56h1v1h-1z M26,56h1v1h-1z M27,56h1v1h-1z M28,56h1v1h-1z M30,56h1v1h-1z M31,56h1v1h-1z M32,56h1v1h-1z M33,56h1v1h-1z M34,56h1v1h-1z M35,56h1v1h-1z M37,56h1v1h-1z M38,56h1v1h-1z M40,56h1v1h-1z M41,56h1v1h-1z M43,56h1v1h-1z M44,56h1v1h-1z M45,56h1v1h-1z M49,56h1v1h-1z M51,56h1v1h-1z M52,56h1v1h-1z M53,56h1v1h-1z M54,56h1v1h-1z M55,56h1v1h-1z M56,56h1v1h-1z M57,56h1v1h-1z M4,57h1v1h-1z M6,57h1v1h-1z M7,57h1v1h-1z M8,57h1v1h-1z M10,57h1v1h-1z M12,57h1v1h-1z M13,57h1v1h-1z M14,57h1v1h-1z M15,57h1v1h-1z M16,57h1v1h-1z M17,57h1v1h-1z M18,57h1v1h-1z M20,57h1v1h-1z M23,57h1v1h-1z M24,57h1v1h-1z M25,57h1v1h-1z M26,57h1v1h-1z M30,57h1v1h-1z M31,57h1v1h-1z M32,57h1v1h-1z M33,57h1v1h-1z M36,57h1v1h-1z M39,57h1v1h-1z M40,57h1v1h-1z M47,57h1v1h-1z M48,57h1v1h-1z M50,57h1v1h-1z M51,57h1v1h-1z M53,57h1v1h-1z M57,57h1v1h-1z M58,57h1v1h-1z M60,57h1v1h-1z M4,58h1v1h-1z M6,58h1v1h-1z M7,58h1v1h-1z M8,58h1v1h-1z M10,58h1v1h-1z M13,58h1v1h-1z M14,58h1v1h-1z M15,58h1v1h-1z M16,58h1v1h-1z M17,58h1v1h-1z M20,58h1v1h-1z M23,58h1v1h-1z M25,58h1v1h-1z M26,58h1v1h-1z M27,58h1v1h-1z M31,58h1v1h-1z M32,58h1v1h-1z M33,58h1v1h-1z M35,58h1v1h-1z M38,58h1v1h-1z M40,58h1v1h-1z M46,58h1v1h-1z M47,58h1v1h-1z M49,58h1v1h-1z M52,58h1v1h-1z M55,58h1v1h-1z M59,58h1v1h-1z M60,58h1v1h-1z M4,59h1v1h-1z M10,59h1v1h-1z M14,59h1v1h-1z M15,59h1v1h-1z M16,59h1v1h-1z M19,59h1v1h-1z M23,59h1v1h-1z M27,59h1v1h-1z M29,59h1v1h-1z M33,59h1v1h-1z M36,59h1v1h-1z M38,59h1v1h-1z M41,59h1v1h-1z M43,59h1v1h-1z M45,59h1v1h-1z M46,59h1v1h-1z M49,59h1v1h-1z M50,59h1v1h-1z M54,59h1v1h-1z M56,59h1v1h-1z M57,59h1v1h-1z M58,59h1v1h-1z M59,59h1v1h-1z M4,60h1v1h-1z M5,60h1v1h-1z M6,60h1v1h-1z M7,60h1v1h-1z M8,60h1v1h-1z M9,60h1v1h-1z M10,60h1v1h-1z M12,60h1v1h-1z M15,60h1v1h-1z M17,60h1v1h-1z M18,60h1v1h-1z M20,60h1v1h-1z M21,60h1v1h-1z M23,60h1v1h-1z M24,60h1v1h-1z M25,60h1v1h-1z M29,60h1v1h-1z M30,60h1v1h-1z M31,60h1v1h-1z M32,60h1v1h-1z M34,60h1v1h-1z M35,60h1v1h-1z M41,60h1v1h-1z M42,60h1v1h-1z M44,60h1v1h-1z M50,60h1v1h-1z M51,60h1v1h-1z M54,60h1v1h-1z M55,60h1v1h-1z M59,60h1v1h-1z" fill="#000000"/>
</svg>
