<?xml version="1.0" encoding="UTF-8"?>
<!DOCTYPE svg PUBLIC "-//W3C//DTD SVG 1.1//EN" "http://www.w3.org/Graphics/SVG/1.1/DTD/svg11.dtd">
<svg xmlns="http://www.w3.org/2000/svg" version="1.1" viewBox="0 0 65 65" stroke="none">
	<rect width="100%" height="100%" fill="#FFFFFF"/>
	<path d="M4,4h1v1h-1z M5,4h1v1h-1z M6,4h1v1h-1z M7,4h1v1h-1z M8,4h1v1h-1z M9,4h1v1h-1z M10,4h1v1h-1z M15,4h1v1h-1z M17,4h1v1h-1z M21,4h1v1h-1z M22,4h1v1h-1z M25,4h1v1h-1z M27,4h1v1h-1z M28,4h1v1h-1z M31,4h1v1h-1z M32,4h1v1h-1z M34,4h1v1h-1z M38,4h1v1h-1z M41,4h1v1h-1z M46,4h1v1h-1z M49,4h1v1h-1z M50,4h1v1h-1z M51,4h1v1h-1z M54,4h1v1h-1z M55,4h1v1h-1z M56,4h1v1h-1z M57,4h1v1h-1z M58,4h1v1h-1z M59,4h1v1h-1z M60,4h1v1h-1z M4,5h1v1h-1z M10,5h1v1h-1z M13,5h1v1h-1z M14,5h1v1h-1z M16,5h1v1h-1z M17,5h1v1h-1z M19,5h1v1h-1z M23,5h1v1h-1z M24,5h1v1h-1z M25,5h1v1h-1z M26,5h1v1h-1z M27,5h1v1h-1z M29,5h1v1h-1z M30,5h1v1h-1z M31,5h1v1h-1z M32,5h1v1h-1z M33,5h1v1h-1z M34,5h1v1h-1z M37,5h1v1h-1z M39,5h1v1h-1z M42,5h1v1h-1z M43,5h1v1h-1z M44,5h1v1h-1z M45,5h1v1h-1z M47,5h1v1h-1z M49,5h1v1h-1z M51,5h1v1h-1z M54,5h1v1h-1z M60,5h1v1h-1z M4,6h1v1h-1z M6,6h1v1h-1z M7,6h1v1h-1z M8,6h1v1h-1z M10,6h1v1h-1z M12,6h1v1h-1z M13,6h1v1h-1z M14,6h1v1h-1z M15,6h1v1h-1z M18,6h1v1h-1z M19,6h1v1h-1z M22,6h1v1h-1z M26,6h1v1h-1z M28,6h1v1h-1z M32,6h1v1h-1z M33,6h1v1h-1z M35,6h1v1h-1z M38,6h1v1h-1z M40,6h1v1h-1z M41,6h1v1h-1z M42,6h1v1h-1z M44,6h1v1h-1z M45,6h1v1h-1z M47,6h1v1h-1z M48,6h1v1h-1z M50,6h1v1h-1z M51,6h1v1h-1z M54,6h1v1h-1z M56,6h1v1h-1z M57,6h1v1h-1z M58,6h1v1h-1z M60,6h1v1h-1z M4,7h1v1h-1z M6,7h1v1h-1z M7,7h1v1h-1z M8,7h1v1h-1z M10,7h1v1h-1z M12,7h1v1h-1z M13,7h1v1h-1z M14,7h1v1h-1z M16,7h1v1h-1z M17,7h1v1h-1z M18,7h1v1h-1z M19,7h1v1h-1z M22,7h1v1h-1z M24,7h1v1h-1z M25,7h1v1h-1z M27,7h1v1h-1z M28,7h1v1h-1z M29,7h1v1h-1z M30,7h1v1h-1z M31,7h1v1h-1z M32,7h1v1h-1z M37,7h1v1h-1z M38,7h1v1h-1z M39,7h1v1h-1z M40,7h1v1h-1z M41,7h1v1h-1z M42,7h1v1h-1z M43,7h1v1h-1z M45,7h1v1h-1z M46,7h1v1h-1z M51,7h1v1h-1z M54,7h1v1h-1z M56,7h1v1h-1z M57,7h1v1h-1z M58,7h1v1h-1z M60,7h1v1h-1z M4,8h1v1h-1z M6,8h1v1h-1z M7,8h1v1h-1z M8,8h1v1h-1z M10,8h1v1h-1z M12,8h1v1h-1z M16,8h1v1h-1z M17,8h1v1h-1z M18,8h1v1h-1z M19,8h1v1h-1z M20,8h1v1h-1z M22,8h1v1h-1z M24,8h1v1h-1z M25,8h1v1h-1z M26,8h1v1h-1z M29,8h1v1h-1z M30,8h1v1h-1z M31,8h1v1h-1z M32,8h1v1h-1z M33,8h1v1h-1z M34,8h1v1h-1z M35,8h1v1h-1z M40,8h1v1h-1z M41,8h1v1h-1z M44,8h1v1h-1z M45,8h1v1h-1z M49,8h1v1h-1z M51,8h1v1h-1z M54,8h1v1h-1z M56,8h1v1h-1z M57,8h1v1h-1z M58,8h1v1h-1z M60,8h1v1h-1z M4,9h1v1h-1z M10,9h1v1h-1z M12,9h1v1h-1z M13,9h1v1h-1z M20,9h1v1h-1z M22,9h1v1h-1z M23,9h1v1h-1z M24,9h1v1h-1z M25,9h1v1h-1z M27,9h1v1h-1z M30,9h1v1h-1z M34,9h1v1h-1z M38,9h1v1h-1z M39,9h1v1h-1z M40,9h1v1h-1z M41,9h1v1h-1z M42,9h1v1h-1z M43,9h1v1h-1z M45,9h1v1h-1z M48,9h1v1h-1z M50,9h1v1h-1z M54,9h1v1h-1z M60,9h1v1h-1z M4,10h1v1h-1z M5,10h1v1h-1z M6,10h1v1h-1z M7,10h1v1h-1z M8,10h1v1h-1z M9,10h1v1h-1z M10,10h1v1h-1z M12,10h1v1h-1z M14,10h1v1h-1z M16,10h1v1h-1z M18,10h1v1h-1z M20,10h1v1h-1z M22,10h1v1h-1z M24,10h1v1h-1z M26,10h1v1h-1z M28,10h1v1h-1z M30,10h1v1h-1z M32,10h1v1h-1z M34,10h1v1h-1z M36,10h1v1h-1z M38,10h1v1h-1z M40,10h1v1h-1z M42,10h1v1h-1z M44,10h1v1h-1z M46,10h1v1h-1z M48,10h1v1h-1z M50,10h1v1h-1z M52,10h1v1h-1z M54,10h1v1h-1z M55,10h1v1h-1z M56,10h1v1h-1z M57,10h1v1h-1z M58,10h1v1h-1z M59,10h1v1h-1z M60,10h1v1h-1z M12,11h1v1h-1z M13,11h1v1h-1z M15,11h1v1h-1z M16,11h1v1h-1z M18,11h1v1h-1z M19,11h1v1h-1z M20,11h1v1h-1z M24,11h1v1h-1z M27,11h1v1h-1z M29,11h1v1h-1z M30,11h1v1h-1z M34,11h1v1h-1z M35,11h1v1h-1z M38,11h1v1h-1z M41,11h1v1h-1z M45,11h1v1h-1z M46,11h1v1h-1z M48,11h1v1h-1z M4,12h1v1h-1z M6,12h1v1h-1z M7,12h1v1h-1z M8,12h1v1h-1z M9,12h1v1h-1z M10,12h1v1h-1z M13,12h1v1h-1z M14,12h1v1h-1z M17,12h1v1h-1z M21,12h1v1h-1z M22,12h1v1h-1z M23,12h1v1h-1z M24,12h1v1h-1z M25,12h1v1h-1z M27,12h1v1h-1z M29,12h1v1h-1z M30,12h1v1h-1z M31,12h1v1h-1z M32,12h1v1h-1z M33,12h1v1h-1z M34,12h1v1h-1z M35,12h1v1h-1z M37,12h1v1h-1z M38,12h1v1h-1z M39,12h1v1h-1z M40,12h1v1h-1z M42,12h1v1h-1z M46,12h1v1h-1z M48,12h1v1h-1z M49,12h1v1h-1z M50,12h1v1h-1z M51,12h1v1h-1z M52,12h1v1h-1z M54,12h1v1h-1z M55,12h1v1h-1z M56,12h1v1h-1z M57,12h1v1h-1z M58,12h1v1h-1z M5,13h1v1h-1z M11,13h1v1h-1z M12,13h1v1h-1z M13,13h1v1h-1z M14,13h1v1h-1z M15,13h1v1h-1z M18,13h1v1h-1z M20,13h1v1h-1z M21,13h1v1h-1z M22,13h1v1h-1z M24,13h1v1h-1z M27,13h1v1h-1z M28,13h1v1h-1z M29,13h1v1h-1z M32,13h1v1h-1z M34,13h1v1h-1z M38,13h1v1h-1z M40,13h1v1h-1z M41,13h1v1h-1z M43,13h1v1h-1z M44,13h1v1h-1z M46,13h1v1h-1z M47,13h1v1h-1z M48,13h1v1h-1z M49,13h1v1h-1z M50,13h1v1h-1z M53,13h1v1h-1z M55,13h1v1h-1z M58,13h1v1h-1z M59,13h1v1h-1z M60,13h1v1h-1z M6,14h1v1h-1z M10,14h1v1h-1z M13,14h1v1h-1z M14,14h1v1h-1z M15,14h1v1h-1z M16,14h1v1h-1z M17,14h1v1h-1z M20,14h1v1h-1z M21,14h1v1h-1z M22,14h1v1h-1z M24,14h1v1h-1z M26,14h1v1h-1z M27,14h1v1h-1z M28,14h1v1h-1z M30,14h1v1h-1z M31,14h1v1h-1z M33,14h1v1h-1z M34,14h1v1h-1z M35,14h1v1h-1z M36,14h1v1h-1z M37,14h1v1h-1z M39,14h1v1h-1z M43,14h1v1h-1z M44,14h1v1h-1z M45,14h1v1h-1z M46,14h1v1h-1z M47,14h1v1h-1z M49,14h1v1h-1z M52,14h1v1h-1z M53,14h1v1h-1z M54,14h1v1h-1z M55,14h1v1h-1z M57,14h1v1h-1z M59,14h1v1h-1z M60,14h1v1h-1z M4,15h1v1h-1z M6,15h1v1h-1z M7,15h1v1h-1z M8,15h1v1h-1z M11,15h1v1h-1z M15,15h1v1h-1z M18,15h1v1h-1z M19,15h1v1h-1z M22,15h1v1h-1z M25,15h1v1h-1z M26,15h1v1h-1z M28,15h1v1h-1z M30,15h1v1h-1z M34,15h1v1h-1z M35,15h1v1h-1z M36,15h1v1h-1z M37,15h1v1h-1z M38,15h1v1h-1z M40,15h1v1h-1z M41,15h1v1h-1z M47,15h1v1h-1z M50,15h1v1h-1z M51,15h1v1h-1z M52,15h1v1h-1z M54,15h1v1h-1z M58,15h1v1h-1z M59,15h1v1h-1z M5,16h1v1h-1z M6,16h1v1h-1z M7,16h1v1h-1z M10,16h1v1h-1z M11,16h1v1h-1z M16,16h1v1h-1z M17,16h1v1h-1z M18,16h1v1h-1z M21,16h1v1h-1z M26,16h1v1h-1z M28,16h1v1h-1z M29,16h1v1h-1z M30,16h1v1h-1z M31,16h1v1h-1z M34,16h1v1h-1z M35,16h1v1h-1z M36,16h1v1h-1z M38,16h1v1h-1z M40,16h1v1h-1z M41,16h1v1h-1z M43,16h1v1h-1z M45,16h1v1h-1z M46,16h1v1h-1z M47,16h1v1h-1z M51,16h1v1h-1z M52,16h1v1h-1z M53,16h1v1h-1z M55,16h1v1h-1z M56,16h1v1h-1z M57,16h1v1h-1z M60,16h1v1h-1z M4,17h1v1h-1z M5,17h1v1h-1z M8,17h1v1h-1z M12,17h1v1h-1z M16,17h1v1h-1z M18,17h1v1h-1z M20,17h1v1h-1z M22,17h1v1h-1z M23,17h1v1h-1z M24,17h1v1h-1z M25,17h1v1h-1z M27,17h1v1h-1z M29,17h1v1h-1z M30,17h1v1h-1z M33,17h1v1h-1z M35,17h1v1h-1z M36,17h1v1h-1z M37,17h1v1h-1z M40,17h1v1h-1z M41,17h1v1h-1z M42,17h1v1h-1z M43,17h1v1h-1z M46,17h1v1h-1z M50,17h1v1h-1z M52,17h1v1h-1z M53,17h1v1h-1z M55,17h1v1h-1z M58,17h1v1h-1z M60,17h1v1h-1z M6,18h1v1h-1z M7,18h1v1h-1z M10,18h1v1h-1z M11,18h1v1h-1z M15,18h1v1h-1z M16,18h1v1h-1z M18,18h1v1h-1z M22,18h1v1h-1z M24,18h1v1h-1z M25,18h1v1h-1z M30,18h1v1h-1z M31,18h1v1h-1z M36,18h1v1h-1z M40,18h1v1h-1z M41,18h1v1h-1z M45,18h1v1h-1z M46,18h1v1h-1z M48,18h1v1h-1z M51,18h1v1h-1z M52,18h1v1h-1z M53,18h1v1h-1z M54,18h1v1h-1z M56,18h1v1h-1z M58,18h1v1h-1z M5,19h1v1h-1z M6,19h1v1h-1z M7,19h1v1h-1z M8,19h1v1h-1z M9,19h1v1h-1z M11,19h1v1h-1z M14,19h1v1h-1z M16,19h1v1h-1z M17,19h1v1h-1z M23,19h1v1h-1z M24,19h1v1h-1z M25,19h1v1h-1z M27,19h1v1h-1z M29,19h1v1h-1z M30,19h1v1h-1z M32,19h1v1h-1z M34,19h1v1h-1z M35,19h1v1h-1z M36,19h1v1h-1z M37,19h1v1h-1z M38,19h1v1h-1z M40,19h1v1h-1z M41,19h1v1h-1z M42,19h1v1h-1z M43,19h1v1h-1z M44,19h1v1h-1z M45,19h1v1h-1z M46,19h1v1h-1z M47,19h1v1h-1z M49,19h1v1h-1z M51,19h1v1h-1z M52,19h1v1h-1z M53,19h1v1h-1z M54,19h1v1h-1z M55,19h1v1h-1z M59,19h1v1h-1z M60,19h1v1h-1z M5,20h1v1h-1z M6,20h1v1h-1z M7,20h1v1h-1z M9,20h1v1h-1z M10,20h1v1h-1z M14,20h1v1h-1z M15,20h1v1h-1z M16,20h1v1h-1z M18,20h1v1h-1z M20,20h1v1h-1z M24,20h1v1h-1z M27,20h1v1h-1z M31,20h1v1h-1z M39,20h1v1h-1z M43,20h1v1h-1z M46,20h1v1h-1z M48,20h1v1h-1z M50,20h1v1h-1z M53,20h1v1h-1z M54,20h1v1h-1z M55,20h1v1h-1z M59,20h1v1h-1z M60,20h1v1h-1z M4,21h1v1h-1z M6,21h1v1h-1z M7,21h1v1h-1z M9,21h1v1h-1z M14,21h1v1h-1z M17,21h1v1h-1z M20,21h1v1h-1z M21,21h1v1h-1z M23,21h1v1h-1z M28,21h1v1h-1z M30,21h1v1h-1z M31,21h1v1h-1z M33,21h1v1h-1z M34,21h1v1h-1z M35,21h1v1h-1z M36,21h1v1h-1z M38,21h1v1h-1z M39,21h1v1h-1z M41,21h1v1h-1z M45,21h1v1h-1z M46,21h1v1h-1z M48,21h1v1h-1z M50,21h1v1h-1z M55,21h1v1h-1z M56,21h1v1h-1z M60,21h1v1h-1z M5,22h1v1h-1z M6,22h1v1h-1z M9,22h1v1h-1z M10,22h1v1h-1z M11,22h1v1h-1z M12,22h1v1h-1z M13,22h1v1h-1z M15,22h1v1h-1z M18,22h1v1h-1z M19,22h1v1h-1z M21,22h1v1h-1z M22,22h1v1h-1z M24,22h1v1h-1z M29,22h1v1h-1z M30,22h1v1h-1z M31,22h1v1h-1z M32,22h1v1h-1z M35,22h1v1h-1z M36,22h1v1h-1z M37,22h1v1h-1z M38,22h1v1h-1z M39,22h1v1h-1z M47,22h1v1h-1z M48,22h1v1h-1z M52,22h1v1h-1z M53,22h1v1h-1z M55,22h1v1h-1z M56,22h1v1h-1z M11,23h1v1h-1z M14,23h1v1h-1z M19,23h1v1h-1z M21,23h1v1h-1z M23,23h1v1h-1z M27,23h1v1h-1z M28,23h1v1h-1z M29,23h1v1h-1z M30,23h1v1h-1z M32,23h1v1h-1z M33,23h1v1h-1z M35,23h1v1h-1z M36,23h1v1h-1z M44,23h1v1h-1z M46,23h1v1h-1z M47,23h1v1h-1z M50,23h1v1h-1z M51,23h1v1h-1z M52,23h1v1h-1z M53,23h1v1h-1z M55,23h1v1h-1z M59,23h1v1h-1z M60,23h1v1h-1z M4,24h1v1h-1z M5,24h1v1h-1z M7,24h1v1h-1z M9,24h1v1h-1z M10,24h1v1h-1z M11,24h1v1h-1z M15,24h1v1h-1z M16,24h1v1h-1z M17,24h1v1h-1z M18,24h1v1h-1z M19,24h1v1h-1z M20,24h1v1h-1z M23,24h1v1h-1z M25,24h1v1h-1z M26,24h1v1h-1z M30,24h1v1h-1z M31,24h1v1h-1z M35,24h1v1h-1z M37,24h1v1h-1z M38,24h1v1h-1z M40,24h1v1h-1z M42,24h1v1h-1z M43,24h1v1h-1z M44,24h1v1h-1z M45,24h1v1h-1z M46,24h1v1h-1z M47,24h1v1h-1z M48,24h1v1h-1z M49,24h1v1h-1z M50,24h1v1h-1z M55,24h1v1h-1z M56,24h1v1h-1z M60,24h1v1h-1z M4,25h1v1h-1z M6,25h1v1h-1z M7,25h1v1h-1z M8,25h1v1h-1z M13,25h1v1h-1z M16,25h1v1h-1z M17,25h1v1h-1z M18,25h1v1h-1z M19,25h1v1h-1z M20,25h1v1h-1z M22,25h1v1h-1z M23,25h1v1h-1z M24,25h1v1h-1z M25,25h1v1h-1z M26,25h1v1h-1z M27,25h1v1h-1z M29,25h1v1h-1z M31,25h1v1h-1z M32,25h1v1h-1z M33,25h1v1h-1z M35,25h1v1h-1z M36,25h1v1h-1z M37,25h1v1h-1z M38,25h1v1h-1z M40,25h1v1h-1z M43,25h1v1h-1z M45,25h1v1h-1z M49,25h1v1h-1z M50,25h1v1h-1z M52,25h1v1h-1z M53,25h1v1h-1z M54,25h1v1h-1z M55,25h1v1h-1z M56,25h1v1h-1z M58,25h1v1h-1z M59,25h1v1h-1z M4,26h1v1h-1z M5,26h1v1h-1z M6,26h1v1h-1z M7,26h1v1h-1z M8,26h1v1h-1z M9,26h1v1h-1z M10,26h1v1h-1z M14,26h1v1h-1z M15,26h1v1h-1z M17,26h1v1h-1z M18,26h1v1h-1z M20,26h1v1h-1z M22,26h1v1h-1z M24,26h1v1h-1z M25,26h1v1h-1z M26,26h1v1h-1z M29,26h1v1h-1z M34,26h1v1h-1z M36,26h1v1h-1z M44,26h1v1h-1z M47,26h1v1h-1z M49,26h1v1h-1z M50,26h1v1h-1z M55,26h1v1h-1z M56,26h1v1h-1z M58,26h1v1h-1z M60,26h1v1h-1z M4,27h1v1h-1z M5,27h1v1h-1z M7,27h1v1h-1z M8,27h1v1h-1z M13,27h1v1h-1z M14,27h1v1h-1z M16,27h1v1h-1z M17,27h1v1h-1z M18,27h1v1h-1z M19,27h1v1h-1z M21,27h1v1h-1z M22,27h1v1h-1z M25,27h1v1h-1z M26,27h1v1h-1z M27,27h1v1h-1z M28,27h1v1h-1z M29,27h1v1h-1z M32,27h1v1h-1z M37,27h1v1h-1z M38,27h1v1h-1z M42,27h1v1h-1z M43,27h1v1h-1z M49,27h1v1h-1z M50,27h1v1h-1z M53,27h1v1h-1z M54,27h1v1h-1z M55,27h1v1h-1z M57,27h1v1h-1z M59,27h1v1h-1z M60,27h1v1h-1z M5,28h1v1h-1z M8,28h1v1h-1z M10,28h1v1h-1z M11,28h1v1h-1z M12,28h1v1h-1z M13,28h1v1h-1z M15,28h1v1h-1z M17,28h1v1h-1z M18,28h1v1h-1z M22,28h1v1h-1z M24,28h1v1h-1z M25,28h1v1h-1z M27,28h1v1h-1z M31,28h1v1h-1z M32,28h1v1h-1z M34,28h1v1h-1z M35,28h1v1h-1z M36,28h1v1h-1z M37,28h1v1h-1z M39,28h1v1h-1z M40,28h1v1h-1z M42,28h1v1h-1z M43,28h1v1h-1z M45,28h1v1h-1z M47,28h1v1h-1z M48,28h1v1h-1z M50,28h1v1h-1z M51,28h1v1h-1z M55,28h1v1h-1z M57,28h1v1h-1z M59,28h1v1h-1z M4,29h1v1h-1z M9,29h1v1h-1z M12,29h1v1h-1z M15,29h1v1h-1z M18,29h1v1h-1z M19,29h1v1h-1z M20,29h1v1h-1z M24,29h1v1h-1z M27,29h1v1h-1z M28,29h1v1h-1z M31,29h1v1h-1z M32,29h1v1h-1z M34,29h1v1h-1z M36,29h1v1h-1z M38,29h1v1h-1z M40,29h1v1h-1z M42,29h1v1h-1z M44,29h1v1h-1z M51,29h1v1h-1z M53,29h1v1h-1z M54,29h1v1h-1z M55,29h1v1h-1z M57,29h1v1h-1z M58,29h1v1h-1z M60,29h1v1h-1z M5,30h1v1h-1z M6,30h1v1h-1z M7,30h1v1h-1z M8,30h1v1h-1z M9,30h1v1h-1z M10,30h1v1h-1z M11,30h1v1h-1z M12,30h1v1h-1z M13,30h1v1h-1z M17,30h1v1h-1z M18,30h1v1h-1z M19,30h1v1h-1z M20,30h1v1h-1z M21,30h1v1h-1z M22,30h1v1h-1z M23,30h1v1h-1z M24,30h1v1h-1z M26,30h1v1h-1z M27,30h1v1h-1z M29,30h1v1h-1z M30,30h1v1h-1z M31,30h1v1h-1z M32,30h1v1h-1z M33,30h1v1h-1z M34,30h1v1h-1z M35,30h1v1h-1z M36,30h1v1h-1z M37,30h1v1h-1z M43,30h1v1h-1z M44,30h1v1h-1z M45,30h1v1h-1z M46,30h1v1h-1z M52,30h1v1h-1z M53,30h1v1h-1z M54,30h1v1h-1z M55,30h1v1h-1z M56,30h1v1h-1z M57,30h1v1h-1z M58,30h1v1h-1z M60,30h1v1h-1z M4,31h1v1h-1z M6,31h1v1h-1z M7,31h1v1h-1z M8,31h1v1h-1z M12,31h1v1h-1z M15,31h1v1h-1z M16,31h1v1h-1z M21,31h1v1h-1z M23,31h1v1h-1z M24,31h1v1h-1z M25,31h1v1h-1z M30,31h1v1h-1z M34,31h1v1h-1z M35,31h1v1h-1z M37,31h1v1h-1z M40,31h1v1h-1z M41,31h1v1h-1z M43,31h1v1h-1z M44,31h1v1h-1z M45,31h1v1h-1z M46,31h1v1h-1z M47,31h1v1h-1z M48,31h1v1h-1z M50,31h1v1h-1z M51,31h1v1h-1z M52,31h1v1h-1z M56,31h1v1h-1z M57,31h1v1h-1z M59,31h1v1h-1z M60,31h1v1h-1z M6,32h1v1h-1z M7,32h1v1h-1z M8,32h1v1h-1z M10,32h1v1h-1z M12,32h1v1h-1z M17,32h1v1h-1z M19,32h1v1h-1z M23,32h1v1h-1z M24,32h1v1h-1z M25,32h1v1h-1z M26,32h1v1h-1z M27,32h1v1h-1z M29,32h1v1h-1z M30,32h1v1h-1z M32,32h1v1h-1z M34,32h1v1h-1z M36,32h1v1h-1z M39,32h1v1h-1z M41,32h1v1h-1z M43,32h1v1h-1z M44,32h1v1h-1z M46,32h1v1h-1z M48,32h1v1h-1z M50,32h1v1h-1z M52,32h1v1h-1z M54,32h1v1h-1z M56,32h1v1h-1z M60,32h1v1h-1z M6,33h1v1h-1z M8,33h1v1h-1z M12,33h1v1h-1z M13,33h1v1h-1z M15,33h1v1h-1z M16,33h1v1h-1z M21,33h1v1h-1z M22,33h1v1h-1z M23,33h1v1h-1z M24,33h1v1h-1z M26,33h1v1h-1z M27,33h1v1h-1z M29,33h1v1h-1z M30,33h1v1h-1z M34,33h1v1h-1z M35,33h1v1h-1z M36,33h1v1h-1z M37,33h1v1h-1z M40,33h1v1h-1z M43,33h1v1h-1z M44,33h1v1h-1z M48,33h1v1h-1z M50,33h1v1h-1z M51,33h1v1h-1z M52,33h1v1h-1z M56,33h1v1h-1z M57,33h1v1h-1z M58,33h1v1h-1z M60,33h1v1h-1z M5,34h1v1h-1z M6,34h1v1h-1z M7,34h1v1h-1z M8,34h1v1h-1z M9,34h1v1h-1z M10,34h1v1h-1z M11,34h1v1h-1z M12,34h1v1h-1z M13,34h1v1h-1z M15,34h1v1h-1z M18,34h1v1h-1z M19,34h1v1h-1z M22,34h1v1h-1z M30,34h1v1h-1z M31,34h1v1h-1z M32,34h1v1h-1z M33,34h1v1h-1z M34,34h1v1h-1z M35,34h1v1h-1z M39,34h1v1h-1z M42,34h1v1h-1z M43,34h1v1h-1z M44,34h1v1h-1z M45,34h1v1h-1z M46,34h1v1h-1z M51,34h1v1h-1z M52,34h1v1h-1z M53,34h1v1h-1z M54,34h1v1h-1z M55,34h1v1h-1z M56,34h1v1h-1z M57,34h1v1h-1z M58,34h1v1h-1z M5,35h1v1h-1z M6,35h1v1h-1z M11,35h1v1h-1z M13,35h1v1h-1z M17,35h1v1h-1z M18,35h1v1h-1z M19,35h1v1h-1z M20,35h1v1h-1z M22,35h1v1h-1z M23,35h1v1h-1z M25,35h1v1h-1z M27,35h1v1h-1z M28,35h1v1h-1z M31,35h1v1h-1z M34,35h1v1h-1z M36,35h1v1h-1z M38,35h1v1h-1z M41,35h1v1h-1z M45,35h1v1h-1z M46,35h1v1h-1z M47,35h1v1h-1z M48,35h1v1h-1z M54,35h1v1h-1z M56,35h1v1h-1z M57,35h1v1h-1z M7,36h1v1h-1z M9,36h1v1h-1z M10,36h1v1h-1z M11,36h1v1h-1z M12,36h1v1h-1z M13,36h1v1h-1z M17,36h1v1h-1z M18,36h1v1h-1z M21,36h1v1h-1z M23,36h1v1h-1z M24,36h1v1h-1z M26,36h1v1h-1z M27,36h1v1h-1z M28,36h1v1h-1z M29,36h1v1h-1z M31,36h1v1h-1z M32,36h1v1h-1z M33,36h1v1h-1z M35,36h1v1h-1z M38,36h1v1h-1z M39,36h1v1h-1z M46,36h1v1h-1z M47,36h1v1h-1z M49,36h1v1h-1z M52,36h1v1h-1z M54,36h1v1h-1z M56,36h1v1h-1z M58,36h1v1h-1z M59,36h1v1h-1z M60,36h1v1h-1z M7,37h1v1h-1z M8,37h1v1h-1z M9,37h1v1h-1z M11,37h1v1h-1z M13,37h1v1h-1z M14,37h1v1h-1z M15,37h1v1h-1z M16,37h1v1h-1z M21,37h1v1h-1z M22,37h1v1h-1z M28,37h1v1h-1z M33,37h1v1h-1z M34,37h1v1h-1z M36,37h1v1h-1z M37,37h1v1h-1z M38,37h1v1h-1z M39,37h1v1h-1z M41,37h1v1h-1z M42,37h1v1h-1z M43,37h1v1h-1z M44,37h1v1h-1z M46,37h1v1h-1z M47,37h1v1h-1z M49,37h1v1h-1z M50,37h1v1h-1z M57,37h1v1h-1z M58,37h1v1h-1z M60,37h1v1h-1z M4,38h1v1h-1z M5,38h1v1h-1z M8,38h1v1h-1z M9,38h1v1h-1z M10,38h1v1h-1z M14,38h1v1h-1z M17,38h1v1h-1z M19,38h1v1h-1z M20,38h1v1h-1z M22,38h1v1h-1z M23,38h1v1h-1z M24,38h1v1h-1z M25,38h1v1h-1z M26,38h1v1h-1z M27,38h1v1h-1z M28,38h1v1h-1z M31,38h1v1h-1z M34,38h1v1h-1z M35,38h1v1h-1z M37,38h1v1h-1z M41,38h1v1h-1z M42,38h1v1h-1z M43,38h1v1h-1z M44,38h1v1h-1z M49,38h1v1h-1z M50,38h1v1h-1z M51,38h1v1h-1z M52,38h1v1h-1z M54,38h1v1h-1z M55,38h1v1h-1z M57,38h1v1h-1z M60,38h1v1h-1z M6,39h1v1h-1z M9,39h1v1h-1z M11,39h1v1h-1z M12,39h1v1h-1z M13,39h1v1h-1z M16,39h1v1h-1z M19,39h1v1h-1z M20,39h1v1h-1z M21,39h1v1h-1z M23,39h1v1h-1z M24,39h1v1h-1z M25,39h1v1h-1z M28,39h1v1h-1z M32,39h1v1h-1z M36,39h1v1h-1z M37,39h1v1h-1z M38,39h1v1h-1z M39,39h1v1h-1z M41,39h1v1h-1z M44,39h1v1h-1z M49,39h1v1h-1z M50,39h1v1h-1z M51,39h1v1h-1z M52,39h1v1h-1z M53,39h1v1h-1z M54,39h1v1h-1z M55,39h1v1h-1z M59,39h1v1h-1z M60,39h1v1h-1z M4,40h1v1h-1z M8,40h1v1h-1z M10,40h1v1h-1z M12,40h1v1h-1z M15,40h1v1h-1z M17,40h1v1h-1z M19,40h1v1h-1z M22,40h1v1h-1z M23,40h1v1h-1z M24,40h1v1h-1z M25,40h1v1h-1z M31,40h1v1h-1z M33,40h1v1h-1z M34,40h1v1h-1z M35,40h1v1h-1z M39,40h1v1h-1z M40,40h1v1h-1z M41,40h1v1h-1z M50,40h1v1h-1z M52,40h1v1h-1z M4,41h1v1h-1z M6,41h1v1h-1z M8,41h1v1h-1z M11,41h1v1h-1z M12,41h1v1h-1z M13,41h1v1h-1z M15,41h1v1h-1z M18,41h1v1h-1z M19,41h1v1h-1z M22,41h1v1h-1z M23,41h1v1h-1z M26,41h1v1h-1z M30,41h1v1h-1z M32,41h1v1h-1z M33,41h1v1h-1z M34,41h1v1h-1z M35,41h1v1h-1z M40,41h1v1h-1z M43,41h1v1h-1z M45,41h1v1h-1z M46,41h1v1h-1z M48,41h1v1h-1z M53,41h1v1h-1z M57,41h1v1h-1z M58,41h1v1h-1z M59,41h1v1h-1z M4,42h1v1h-1z M5,42h1v1h-1z M7,42h1v1h-1z M10,42h1v1h-1z M11,42h1v1h-1z M13,42h1v1h-1z M16,42h1v1h-1z M18,42h1v1h-1z M23,42h1v1h-1z M24,42h1v1h-1z M26,42h1v1h-1z M28,42h1v1h-1z M31,42h1v1h-1z M32,42h1v1h-1z M34,42h1v1h-1z M35,42h1v1h-1z M36,42h1v1h-1z M37,42h1v1h-1z M38,42h1v1h-1z M39,42h1v1h-1z M40,42h1v1h-1z M41,42h1v1h-1z M42,42h1v1h-1z M44,42h1v1h-1z M46,42h1v1h-1z M47,42h1v1h-1z M51,42h1v1h-1z M52,42h1v1h-1z M58,42h1v1h-1z M60,42h1v1h-1z M4,43h1v1h-1z M5,43h1v1h-1z M6,43h1v1h-1z M7,43h1v1h-1z M9,43h1v1h-1z M14,43h1v1h-1z M17,43h1v1h-1z M18,43h1v1h-1z M19,43h1v1h-1z M20,43h1v1h-1z M22,43h1v1h-1z M24,43h1v1h-1z M25,43h1v1h-1z M27,43h1v1h-1z M28,43h1v1h-1z M30,43h1v1h-1z M32,43h1v1h-1z M34,43h1v1h-1z M35,43h1v1h-1z M36,43h1v1h-1z M38,43h1v1h-1z M39,43h1v1h-1z M40,43h1v1h-1z M41,43h1v1h-1z M43,43h1v1h-1z M47,43h1v1h-1z M48,43h1v1h-1z M49,43h1v1h-1z M50,43h1v1h-1z M52,43h1v1h-1z M53,43h1v1h-1z M55,43h1v1h-1z M60,43h1v1h-1z M4,44h1v1h-1z M5,44h1v1h-1z M6,44h1v1h-1z M8,44h1v1h-1z M10,44h1v1h-1z M11,44h1v1h-1z M13,44h1v1h-1z M14,44h1v1h-1z M16,44h1v1h-1z M17,44h1v1h-1z M21,44h1v1h-1z M23,44h1v1h-1z M28,44h1v1h-1z M29,44h1v1h-1z M30,44h1v1h-1z M32,44h1v1h-1z M35,44h1v1h-1z M36,44h1v1h-1z M37,44h1v1h-1z M38,44h1v1h-1z M41,44h1v1h-1z M42,44h1v1h-1z M44,44h1v1h-1z M47,44h1v1h-1z M51,44h1v1h-1z M54,44h1v1h-1z M56,44h1v1h-1z M58,44h1v1h-1z M59,44h1v1h-1z M4,45h1v1h-1z M5,45h1v1h-1z M11,45h1v1h-1z M12,45h1v1h-1z M16,45h1v1h-1z M17,45h1v1h-1z M18,45h1v1h-1z M20,45h1v1h-1z M21,45h1v1h-1z M25,45h1v1h-1z M26,45h1v1h-1z M28,45h1v1h-1z M29,45h1v1h-1z M30,45h1v1h-1z M33,45h1v1h-1z M37,45h1v1h-1z M39,45h1v1h-1z M42,45h1v1h-1z M43,45h1v1h-1z M45,45h1v1h-1z M46,45h1v1h-1z M47,45h1v1h-1z M48,45h1v1h-1z M49,45h1v1h-1z M50,45h1v1h-1z M52,45h1v1h-1z M54,45h1v1h-1z M55,45h1v1h-1z M57,45h1v1h-1z M5,46h1v1h-1z M8,46h1v1h-1z M9,46h1v1h-1z M10,46h1v1h-1z M11,46h1v1h-1z M12,46h1v1h-1z M14,46h1v1h-1z M16,46h1v1h-1z M17,46h1v1h-1z M18,46h1v1h-1z M22,46h1v1h-1z M24,46h1v1h-1z M25,46h1v1h-1z M26,46h1v1h-1z M28,46h1v1h-1z M29,46h1v1h-1z M30,46h1v1h-1z M34,46h1v1h-1z M35,46h1v1h-1z M36,46h1v1h-1z M39,46h1v1h-1z M40,46h1v1h-1z M41,46h1v1h-1z M45,46h1v1h-1z M46,46h1v1h-1z M48,46h1v1h-1z M50,46h1v1h-1z M51,46h1v1h-1z M52,46h1v1h-1z M55,46h1v1h-1z M56,46h1v1h-1z M57,46h1v1h-1z M58,46h1v1h-1z M59,46h1v1h-1z M60,46h1v1h-1z M4,47h1v1h-1z M6,47h1v1h-1z M12,47h1v1h-1z M13,47h1v1h-1z M14,47h1v1h-1z M15,47h1v1h-1z M20,47h1v1h-1z M21,47h1v1h-1z M22,47h1v1h-1z M24,47h1v1h-1z M26,47h1v1h-1z M27,47h1v1h-1z M28,47h1v1h-1z M29,47h1v1h-1z M31,47h1v1h-1z M32,47h1v1h-1z M33,47h1v1h-1z M34,47h1v1h-1z M35,47h1v1h-1z M37,47h1v1h-1z M39,47h1v1h-1z M42,47h1v1h-1z M43,47h1v1h-1z M44,47h1v1h-1z M45,47h1v1h-1z M46,47h1v1h-1z M47,47h1v1h-1z M48,47h1v1h-1z M53,47h1v1h-1z M54,47h1v1h-1z M56,47h1v1h-1z M59,47h1v1h-1z M4,48h1v1h-1z M7,48h1v1h-1z M10,48h1v1h-1z M11,48h1v1h-1z M12,48h1v1h-1z M14,48h1v1h-1z M16,48h1v1h-1z M17,48h1v1h-1z M19,48h1v1h-1z M22,48h1v1h-1z M23,48h1v1h-1z M27,48h1v1h-1z M34,48h1v1h-1z M37,48h1v1h-1z M41,48h1v1h-1z M46,48h1v1h-1z M47,48h1v1h-1z M50,48h1v1h-1z M52,48h1v1h-1z M53,48h1v1h-1z M58,48h1v1h-1z M5,49h1v1h-1z M7,49h1v1h-1z M12,49h1v1h-1z M14,49h1v1h-1z M16,49h1v1h-1z M18,49h1v1h-1z M19,49h1v1h-1z M21,49h1v1h-1z M22,49h1v1h-1z M24,49h1v1h-1z M26,49h1v1h-1z M27,49h1v1h-1z M29,49h1v1h-1z M30,49h1v1h-1z M31,49h1v1h-1z M32,49h1v1h-1z M33,49h1v1h-1z M34,49h1v1h-1z M35,49h1v1h-1z M38,49h1v1h-1z M39,49h1v1h-1z M41,49h1v1h-1z M44,49h1v1h-1z M45,49h1v1h-1z M49,49h1v1h-1z M52,49h1v1h-1z M53,49h1v1h-1z M54,49h1v1h-1z M56,49h1v1h-1z M60,49h1v1h-1z M4,50h1v1h-1z M6,50h1v1h-1z M9,50h1v1h-1z M10,50h1v1h-1z M14,50h1v1h-1z M15,50h1v1h-1z M17,50h1v1h-1z M19,50h1v1h-1z M20,50h1v1h-1z M22,50h1v1h-1z M27,50h1v1h-1z M28,50h1v1h-1z M31,50h1v1h-1z M34,50h1v1h-1z M37,50h1v1h-1z M38,50h1v1h-1z M40,50h1v1h-1z M45,50h1v1h-1z M48,50h1v1h-1z M49,50h1v1h-1z M50,50h1v1h-1z M52,50h1v1h-1z M53,50h1v1h-1z M55,50h1v1h-1z M56,50h1v1h-1z M4,51h1v1h-1z M5,51h1v1h-1z M6,51h1v1h-1z M7,51h1v1h-1z M8,51h1v1h-1z M14,51h1v1h-1z M15,51h1v1h-1z M16,51h1v1h-1z M17,51h1v1h-1z M20,51h1v1h-1z M23,51h1v1h-1z M25,51h1v1h-1z M26,51h1v1h-1z M27,51h1v1h-1z M28,51h1v1h-1z M31,51h1v1h-1z M32,51h1v1h-1z M33,51h1v1h-1z M34,51h1v1h-1z M35,51h1v1h-1z M38,51h1v1h-1z M41,51h1v1h-1z M45,51h1v1h-1z M46,51h1v1h-1z M48,51h1v1h-1z M49,51h1v1h-1z M51,51h1v1h-1z M52,51h1v1h-1z M53,51h1v1h-1z M55,51h1v1h-1z M57,51h1v1h-1z M60,51h1v1h-1z M10,52h1v1h-1z M12,52h1v1h-1z M13,52h1v1h-1z M15,52h1v1h-1z M16,52h1v1h-1z M17,52h1v1h-1z M18,52h1v1h-1z M19,52h1v1h-1z M21,52h1v1h-1z M23,52h1v1h-1z M24,52h1v1h-1z M27,52h1v1h-1z M30,52h1v1h-1z M31,52h1v1h-1z M32,52h1v1h-1z M33,52h1v1h-1z M34,52h1v1h-1z M35,52h1v1h-1z M36,52h1v1h-1z M37,52h1v1h-1z M38,52h1v1h-1z M40,52h1v1h-1z M41,52h1v1h-1z M43,52h1v1h-1z M45,52h1v1h-1z M48,52h1v1h-1z M52,52h1v1h-1z M53,52h1v1h-1z M54,52h1v1h-1z M55,52h1v1h-1z M56,52h1v1h-1z M59,52h1v1h-1z M60,52h1v1h-1z M12,53h1v1h-1z M13,53h1v1h-1z M14,53h1v1h-1z M15,53h1v1h-1z M17,53h1v1h-1z M18,53h1v1h-1z M20,53h1v1h-1z M22,53h1v1h-1z M23,53h1v1h-1z M25,53h1v1h-1z M28,53h1v1h-1z M29,53h1v1h-1z M30,53h1v1h-1z M34,53h1v1h-1z M35,53h1v1h-1z M38,53h1v1h-1z M39,53h1v1h-1z M40,53h1v1h-1z M45,53h1v1h-1z M46,53h1v1h-1z M48,53h1v1h-1z M49,53h1v1h-1z M50,53h1v1h-1z M52,53h1v1h-1z M56,53h1v1h-1z M57,53h1v1h-1z M58,53h1v1h-1z M4,54h1v1h-1z M5,54h1v1h-1z M6,54h1v1h-1z M7,54h1v1h-1z M8,54h1v1h-1z M9,54h1v1h-1z M10,54h1v1h-1z M13,54h1v1h-1z M18,54h1v1h-1z M19,54h1v1h-1z M20,54h1v1h-1z M24,54h1v1h-1z M25,54h1v1h-1z M26,54h1v1h-1z M27,54h1v1h-1z M28,54h1v1h-1z M29,54h1v1h-1z M30,54h1v1h-1z M32,54h1v1h-1z M34,54h1v1h-1z M37,54h1v1h-1z M40,54h1v1h-1z M42,54h1v1h-1z M46,54h1v1h-1z M48,54h1v1h-1z M49,54h1v1h-1z M50,54h1v1h-1z M52,54h1v1h-1z M54,54h1v1h-1z M56,54h1v1h-1z M58,54h1v1h-1z M59,54h1v1h-1z M60,54h1v1h-1z M4,55h1v1h-1z M10,55h1v1h-1z M12,55h1v1h-1z M13,55h1v1h-1z M14,55h1v1h-1z M19,55h1v1h-1z M22,55h1v1h-1z M23,55h1v1h-1z M24,55h1v1h-1z M26,55h1v1h-1z M30,55h1v1h-1z M34,55h1v1h-1z M35,55h1v1h-1z M39,55h1v1h-1z M40,55h1v1h-1z M50,55h1v1h-1z M52,55h1v1h-1z M56,55h1v1h-1z M59,55h1v1h-1z M60,55h1v1h-1z M4,56h1v1h-1z M6,56h1v1h-1z M7,56h1v1h-1z M8,56h1v1h-1z M10,56h1v1h-1z M12,56h1v1h-1z M16,56h1v1h-1z M17,56h1v1h-1z M18,56h1v1h-1z M19,56h1v1h-1z M21,56h1v1h-1z M22,56h1v1h-1z M24,56h1v1h-1z M28,56h1v1h-1z M29,56h1v1h-1z M30,56h1v1h-1z M31,56h1v1h-1z M32,56h1v1h-1z M33,56h1v1h-1z M34,56h1v1h-1z M36,56h1v1h-1z M37,56h1v1h-1z M38,56h1v1h-1z M39,56h1v1h-1z M41,56h1v1h-1z M42,56h1v1h-1z M43,56h1v1h-1z M44,56h1v1h-1z M45,56h1v1h-1z M46,56h1v1h-1z M47,56h1v1h-1z M48,56h1v1h-1z M49,56h1v1h-1z M51,56h1v1h-1z M52,56h1v1h-1z M53,56h1v1h-1z M54,56h1v1h-1z M55,56h1v1h-1z M56,56h1v1h-1z M57,56h1v1h-1z M4,57h1v1h-1z M6,57h1v1h-1z M7,57h1v1h-1z M8,57h1v1h-1z M10,57h1v1h-1z M12,57h1v1h-1z M16,57h1v1h-1z M19,57h1v1h-1z M24,57h1v1h-1z M26,57h1v1h-1z M27,57h1v1h-1z M30,57h1v1h-1z M33,57h1v1h-1z M34,57h1v1h-1z M35,57h1v1h-1z M36,57h1v1h-1z M40,57h1v1h-1z M41,57h1v1h-1z M43,57h1v1h-1z M44,57h1v1h-1z M45,57h1v1h-1z M46,57h1v1h-1z M49,57h1v1h-1z M52,57h1v1h-1z M54,57h1v1h-1z M56,57h1v1h-1z M57,57h1v1h-1z M60,57h1v1h-1z M4,58h1v1h-1z M6,58h1v1h-1z M7,58h1v1h-1z M8,58h1v1h-1z M10,58h1v1h-1z M12,58h1v1h-1z M13,58h1v1h-1z M14,58h1v1h-1z M15,58h1v1h-1z M17,58h1v1h-1z M19,58h1v1h-1z M21,58h1v1h-1z M22,58h1v1h-1z M24,58h1v1h-1z M25,58h1v1h-1z M26,58h1v1h-1z M29,58h1v1h-1z M30,58h1v1h-1z M31,58h1v1h-1z M35,58h1v1h-1z M37,58h1v1h-1z M41,58h1v1h-1z M44,58h1v1h-1z M45,58h1v1h-1z M47,58h1v1h-1z M48,58h1v1h-1z M49,58h1v1h-1z M50,58h1v1h-1z M53,58h1v1h-1z M54,58h1v1h-1z M57,58h1v1h-1z M4,59h1v1h-1z M10,59h1v1h-1z M13,59h1v1h-1z M14,59h1v1h-1z M17,59h1v1h-1z M22,59h1v1h-1z M23,59h1v1h-1z M26,59h1v1h-1z M27,59h1v1h-1z M30,59h1v1h-1z M31,59h1v1h-1z M34,59h1v1h-1z M35,59h1v1h-1z M37,59h1v1h-1z M38,59h1v1h-1z M39,59h1v1h-1z M45,59h1v1h-1z M46,59h1v1h-1z M52,59h1v1h-1z M55,59h1v1h-1z M58,59h1v1h-1z M60,59h1v1h-1z M4,60h1v1h-1z M5,60h1v1h-1z M6,60h1v1h-1z M7,60h1v1h-1z M8,60h1v1h-1z M9,60h1v1h-1z M10,60h1v1h-1z M12,60h1v1h-1z M13,60h1v1h-1z M14,60h1v1h-1z M15,60h1v1h-1z M16,60h1v1h-1z M18,60h1v1h-1z M19,60h1v1h-1z M20,60h1v1h-1z M21,60h1v1h-1z M23,60h1v1h-1z M25,60h1v1h-1z M26,60h1v1h-1z M27,60h1v1h-1z M28,60h1v1h-1z M31,60h1v1h-1z M34,60h1v1h-1z M38,60h1v1h-1z M41,60h1v1h-1z M43,60h1v1h-1z M45,60h1v1h-1z M46,60h1v1h-1z M47,60h1v1h-1z M48,60h1v1h-1z M50,60h1v1h-1z M54,60h1v1h-1z M57,60h1v1h-1z M58,60h1v1h-1z" fill="#000000"/>
</svg>
