<?xml version="1.0" encoding="UTF-8"?>
<!DOCTYPE svg PUBLIC "-//W3C//DTD SVG 1.1//EN" "http://www.w3.org/Graphics/SVG/1.1/DTD/svg11.dtd">
<svg xmlns="http://www.w3.org/2000/svg" version="1.1" viewBox="0 0 65 65" stroke="none">
	<rect width="100%" height="100%" fill="#FFFFFF"/>
	<path d="M4,4h1v1h-1z M5,4h1v1h-1z M6,4h1v1h-1z M7,4h1v1h-1z M8,4h1v1h-1z M9,4h1v1h-1z M10,4h1v1h-1z M12,4h1v1h-1z M17,4h1v1h-1z M19,4h1v1h-1z M20,4h1v1h-1z M23,4h1v1h-1z M25,4h1v1h-1z M26,4h1v1h-1z M28,4h1v1h-1z M29,4h1v1h-1z M32,4h1v1h-1z M34,4h1v1h-1z M35,4h1v1h-1z M43,4h1v1h-1z M46,4h1v1h-1z M47,4h1v1h-1z M48,4h1v1h-1z M50,4h1v1h-1z M51,4h1v1h-1z M54,4h1v1h-1z M55,4h1v1h-1z M56,4h1v1h-1z M57,4h1v1h-1z M58,4h1v1h-1z M59,4h1v1h-1z M60,4h1v1h-1z M4,5h1v1h-1z M10,5h1v1h-1z M13,5h1v1h-1z M17,5h1v1h-1z M18,5h1v1h-1z M20,5h1v1h-1z M21,5h1v1h-1z M22,5h1v1h-1z M24,5h1v1h-1z M25,5h1v1h-1z M29,5h1v1h-1z M30,5h1v1h-1z M31,5h1v1h-1z M33,5h1v1h-1z M34,5h1v1h-1z M39,5h1v1h-1z M40,5h1v1h-1z M42,5h1v1h-1z M43,5h1v1h-1z M45,5h1v1h-1z M48,5h1v1h-1z M51,5h1v1h-1z M54,5h1v1h-1z M60,5h1v1h-1z M4,6h1v1h-1z M6,6h1v1h-1z M7,6h1v1h-1z M8,6h1v1h-1z M10,6h1v1h-1z M13,6h1v1h-1z M17,6h1v1h-1z M18,6h1v1h-1z M20,6h1v1h-1z M23,6h1v1h-1z M27,6h1v1h-1z M28,6h1v1h-1z M30,6h1v1h-1z M31,6h1v1h-1z M34,6h1v1h-1z M35,6h1v1h-1z M37,6h1v1h-1z M40,6h1v1h-1z M41,6h1v1h-1z M42,6h1v1h-1z M46,6h1v1h-1z M48,6h1v1h-1z M50,6h1v1h-1z M51,6h1v1h-1z M54,6h1v1h-1z M56,6h1v1h-1z M57,6h1v1h-1z M58,6h1v1h-1z M60,6h1v1h-1z M4,7h1v1h-1z M6,7h1v1h-1z M7,7h1v1h-1z M8,7h1v1h-1z M10,7h1v1h-1z M12,7h1v1h-1z M14,7h1v1h-1z M15,7h1v1h-1z M17,7h1v1h-1z M18,7h1v1h-1z M19,7h1v1h-1z M24,7h1v1h-1z M29,7h1v1h-1z M31,7h1v1h-1z M32,7h1v1h-1z M33,7h1v1h-1z M37,7h1v1h-1z M38,7h1v1h-1z M39,7h1v1h-1z M44,7h1v1h-1z M45,7h1v1h-1z M46,7h1v1h-1z M48,7h1v1h-1z M51,7h1v1h-1z M54,7h1v1h-1z M56,7h1v1h-1z M57,7h1v1h-1z M58,7h1v1h-1z M60,7h1v1h-1z M4,8h1v1h-1z M6,8h1v1h-1z M7,8h1v1h-1z M8,8h1v1h-1z M10,8h1v1h-1z M12,8h1v1h-1z M14,8h1v1h-1z M18,8h1v1h-1z M19,8h1v1h-1z M20,8h1v1h-1z M21,8h1v1h-1z M24,8h1v1h-1z M25,8h1v1h-1z M27,8h1v1h-1z M28,8h1v1h-1z M29,8h1v1h-1z M30,8h1v1h-1z M31,8h1v1h-1z M32,8h1v1h-1z M33,8h1v1h-1z M34,8h1v1h-1z M36,8h1v1h-1z M37,8h1v1h-1z M38,8h1v1h-1z M39,8h1v1h-1z M40,8h1v1h-1z M41,8h1v1h-1z M42,8h1v1h-1z M43,8h1v1h-1z M47,8h1v1h-1z M48,8h1v1h-1z M51,8h1v1h-1z M54,8h1v1h-1z M56,8h1v1h-1z M57,8h1v1h-1z M58,8h1v1h-1z M60,8h1v1h-1z M4,9h1v1h-1z M10,9h1v1h-1z M12,9h1v1h-1z M14,9h1v1h-1z M16,9h1v1h-1z M17,9h1v1h-1z M18,9h1v1h-1z M20,9h1v1h-1z M21,9h1v1h-1z M23,9h1v1h-1z M27,9h1v1h-1z M29,9h1v1h-1z M30,9h1v1h-1z M34,9h1v1h-1z M35,9h1v1h-1z M36,9h1v1h-1z M37,9h1v1h-1z M39,9h1v1h-1z M40,9h1v1h-1z M41,9h1v1h-1z M42,9h1v1h-1z M43,9h1v1h-1z M45,9h1v1h-1z M46,9h1v1h-1z M48,9h1v1h-1z M49,9h1v1h-1z M50,9h1v1h-1z M54,9h1v1h-1z M60,9h1v1h-1z M4,10h1v1h-1z M5,10h1v1h-1z M6,10h1v1h-1z M7,10h1v1h-1z M8,10h1v1h-1z M9,10h1v1h-1z M10,10h1v1h-1z M12,10h1v1h-1z M14,10h1v1h-1z M16,10h1v1h-1z M18,10h1v1h-1z M20,10h1v1h-1z M22,10h1v1h-1z M24,10h1v1h-1z M26,10h1v1h-1z M28,10h1v1h-1z M30,10h1v1h-1z M32,10h1v1h-1z M34,10h1v1h-1z M36,10h1v1h-1z M38,10h1v1h-1z M40,10h1v1h-1z M42,10h1v1h-1z M44,10h1v1h-1z M46,10h1v1h-1z M48,10h1v1h-1z M50,10h1v1h-1z M52,10h1v1h-1z M54,10h1v1h-1z M55,10h1v1h-1z M56,10h1v1h-1z M57,10h1v1h-1z M58,10h1v1h-1z M59,10h1v1h-1z M60,10h1v1h-1z M12,11h1v1h-1z M13,11h1v1h-1z M14,11h1v1h-1z M16,11h1v1h-1z M23,11h1v1h-1z M26,11h1v1h-1z M30,11h1v1h-1z M34,11h1v1h-1z M35,11h1v1h-1z M36,11h1v1h-1z M39,11h1v1h-1z M44,11h1v1h-1z M45,11h1v1h-1z M48,11h1v1h-1z M50,11h1v1h-1z M51,11h1v1h-1z M52,11h1v1h-1z M4,12h1v1h-1z M8,12h1v1h-1z M10,12h1v1h-1z M11,12h1v1h-1z M12,12h1v1h-1z M17,12h1v1h-1z M18,12h1v1h-1z M19,12h1v1h-1z M20,12h1v1h-1z M22,12h1v1h-1z M23,12h1v1h-1z M24,12h1v1h-1z M28,12h1v1h-1z M30,12h1v1h-1z M31,12h1v1h-1z M32,12h1v1h-1z M33,12h1v1h-1z M34,12h1v1h-1z M36,12h1v1h-1z M38,12h1v1h-1z M39,12h1v1h-1z M40,12h1v1h-1z M41,12h1v1h-1z M42,12h1v1h-1z M45,12h1v1h-1z M47,12h1v1h-1z M48,12h1v1h-1z M50,12h1v1h-1z M51,12h1v1h-1z M53,12h1v1h-1z M54,12h1v1h-1z M55,12h1v1h-1z M56,12h1v1h-1z M57,12h1v1h-1z M60,12h1v1h-1z M5,13h1v1h-1z M8,13h1v1h-1z M9,13h1v1h-1z M13,13h1v1h-1z M16,13h1v1h-1z M19,13h1v1h-1z M21,13h1v1h-1z M22,13h1v1h-1z M23,13h1v1h-1z M24,13h1v1h-1z M25,13h1v1h-1z M27,13h1v1h-1z M28,13h1v1h-1z M29,13h1v1h-1z M31,13h1v1h-1z M32,13h1v1h-1z M36,13h1v1h-1z M37,13h1v1h-1z M38,13h1v1h-1z M44,13h1v1h-1z M46,13h1v1h-1z M47,13h1v1h-1z M48,13h1v1h-1z M50,13h1v1h-1z M51,13h1v1h-1z M52,13h1v1h-1z M53,13h1v1h-1z M54,13h1v1h-1z M59,13h1v1h-1z M4,14h1v1h-1z M5,14h1v1h-1z M6,14h1v1h-1z M7,14h1v1h-1z M8,14h1v1h-1z M9,14h1v1h-1z M10,14h1v1h-1z M12,14h1v1h-1z M13,14h1v1h-1z M14,14h1v1h-1z M17,14h1v1h-1z M18,14h1v1h-1z M21,14h1v1h-1z M22,14h1v1h-1z M23,14h1v1h-1z M24,14h1v1h-1z M28,14h1v1h-1z M34,14h1v1h-1z M37,14h1v1h-1z M38,14h1v1h-1z M41,14h1v1h-1z M42,14h1v1h-1z M43,14h1v1h-1z M44,14h1v1h-1z M45,14h1v1h-1z M46,14h1v1h-1z M47,14h1v1h-1z M50,14h1v1h-1z M53,14h1v1h-1z M58,14h1v1h-1z M4,15h1v1h-1z M6,15h1v1h-1z M7,15h1v1h-1z M8,15h1v1h-1z M11,15h1v1h-1z M12,15h1v1h-1z M13,15h1v1h-1z M14,15h1v1h-1z M16,15h1v1h-1z M18,15h1v1h-1z M19,15h1v1h-1z M21,15h1v1h-1z M25,15h1v1h-1z M27,15h1v1h-1z M28,15h1v1h-1z M29,15h1v1h-1z M30,15h1v1h-1z M32,15h1v1h-1z M36,15h1v1h-1z M37,15h1v1h-1z M38,15h1v1h-1z M39,15h1v1h-1z M47,15h1v1h-1z M48,15h1v1h-1z M51,15h1v1h-1z M52,15h1v1h-1z M53,15h1v1h-1z M55,15h1v1h-1z M56,15h1v1h-1z M57,15h1v1h-1z M58,15h1v1h-1z M60,15h1v1h-1z M4,16h1v1h-1z M5,16h1v1h-1z M6,16h1v1h-1z M8,16h1v1h-1z M9,16h1v1h-1z M10,16h1v1h-1z M12,16h1v1h-1z M17,16h1v1h-1z M19,16h1v1h-1z M21,16h1v1h-1z M22,16h1v1h-1z M25,16h1v1h-1z M26,16h1v1h-1z M28,16h1v1h-1z M29,16h1v1h-1z M30,16h1v1h-1z M33,16h1v1h-1z M34,16h1v1h-1z M36,16h1v1h-1z M37,16h1v1h-1z M40,16h1v1h-1z M42,16h1v1h-1z M43,16h1v1h-1z M45,16h1v1h-1z M47,16h1v1h-1z M49,16h1v1h-1z M51,16h1v1h-1z M53,16h1v1h-1z M54,16h1v1h-1z M55,16h1v1h-1z M57,16h1v1h-1z M60,16h1v1h-1z M4,17h1v1h-1z M5,17h1v1h-1z M12,17h1v1h-1z M13,17h1v1h-1z M15,17h1v1h-1z M16,17h1v1h-1z M18,17h1v1h-1z M22,17h1v1h-1z M23,17h1v1h-1z M24,17h1v1h-1z M27,17h1v1h-1z M31,17h1v1h-1z M36,17h1v1h-1z M37,17h1v1h-1z M38,17h1v1h-1z M39,17h1v1h-1z M41,17h1v1h-1z M42,17h1v1h-1z M44,17h1v1h-1z M45,17h1v1h-1z M47,17h1v1h-1z M49,17h1v1h-1z M50,17h1v1h-1z M54,17h1v1h-1z M57,17h1v1h-1z M59,17h1v1h-1z M5,18h1v1h-1z M9,18h1v1h-1z M10,18h1v1h-1z M11,18h1v1h-1z M13,18h1v1h-1z M16,18h1v1h-1z M18,18h1v1h-1z M20,18h1v1h-1z M21,18h1v1h-1z M23,18h1v1h-1z M24,18h1v1h-1z M27,18h1v1h-1z M28,18h1v1h-1z M30,18h1v1h-1z M31,18h1v1h-1z M32,18h1v1h-1z M33,18h1v1h-1z M34,18h1v1h-1z M35,18h1v1h-1z M36,18h1v1h-1z M37,18h1v1h-1z M39,18h1v1h-1z M40,18h1v1h-1z M42,18h1v1h-1z M44,18h1v1h-1z M45,18h1v1h-1z M46,18h1v1h-1z M50,18h1v1h-1z M51,18h1v1h-1z M52,18h1v1h-1z M54,18h1v1h-1z M55,18h1v1h-1z M56,18h1v1h-1z M6,19h1v1h-1z M7,19h1v1h-1z M9,19h1v1h-1z M14,19h1v1h-1z M16,19h1v1h-1z M17,19h1v1h-1z M21,19h1v1h-1z M22,19h1v1h-1z M24,19h1v1h-1z M26,19h1v1h-1z M28,19h1v1h-1z M29,19h1v1h-1z M30,19h1v1h-1z M32,19h1v1h-1z M33,19h1v1h-1z M34,19h1v1h-1z M37,19h1v1h-1z M39,19h1v1h-1z M43,19h1v1h-1z M44,19h1v1h-1z M49,19h1v1h-1z M50,19h1v1h-1z M53,19h1v1h-1z M54,19h1v1h-1z M57,19h1v1h-1z M58,19h1v1h-1z M59,19h1v1h-1z M60,19h1v1h-1z M4,20h1v1h-1z M5,20h1v1h-1z M7,20h1v1h-1z M9,20h1v1h-1z M10,20h1v1h-1z M11,20h1v1h-1z M12,20h1v1h-1z M15,20h1v1h-1z M17,20h1v1h-1z M20,20h1v1h-1z M21,20h1v1h-1z M23,20h1v1h-1z M24,20h1v1h-1z M28,20h1v1h-1z M29,20h1v1h-1z M30,20h1v1h-1z M31,20h1v1h-1z M34,20h1v1h-1z M35,20h1v1h-1z M37,20h1v1h-1z M39,20h1v1h-1z M40,20h1v1h-1z M41,20h1v1h-1z M42,20h1v1h-1z M44,20h1v1h-1z M45,20h1v1h-1z M46,20h1v1h-1z M47,20h1v1h-1z M55,20h1v1h-1z M56,20h1v1h-1z M57,20h1v1h-1z M6,21h1v1h-1z M8,21h1v1h-1z M11,21h1v1h-1z M18,21h1v1h-1z M19,21h1v1h-1z M20,21h1v1h-1z M21,21h1v1h-1z M23,21h1v1h-1z M24,21h1v1h-1z M25,21h1v1h-1z M26,21h1v1h-1z M27,21h1v1h-1z M33,21h1v1h-1z M37,21h1v1h-1z M40,21h1v1h-1z M42,21h1v1h-1z M43,21h1v1h-1z M47,21h1v1h-1z M53,21h1v1h-1z M54,21h1v1h-1z M55,21h1v1h-1z M56,21h1v1h-1z M59,21h1v1h-1z M60,21h1v1h-1z M5,22h1v1h-1z M8,22h1v1h-1z M10,22h1v1h-1z M11,22h1v1h-1z M12,22h1v1h-1z M15,22h1v1h-1z M20,22h1v1h-1z M23,22h1v1h-1z M25,22h1v1h-1z M27,22h1v1h-1z M28,22h1v1h-1z M32,22h1v1h-1z M33,22h1v1h-1z M35,22h1v1h-1z M37,22h1v1h-1z M38,22h1v1h-1z M40,22h1v1h-1z M46,22h1v1h-1z M51,22h1v1h-1z M53,22h1v1h-1z M56,22h1v1h-1z M58,22h1v1h-1z M60,22h1v1h-1z M8,23h1v1h-1z M9,23h1v1h-1z M11,23h1v1h-1z M14,23h1v1h-1z M15,23h1v1h-1z M18,23h1v1h-1z M19,23h1v1h-1z M24,23h1v1h-1z M25,23h1v1h-1z M32,23h1v1h-1z M34,23h1v1h-1z M38,23h1v1h-1z M43,23h1v1h-1z M45,23h1v1h-1z M47,23h1v1h-1z M50,23h1v1h-1z M53,23h1v1h-1z M55,23h1v1h-1z M56,23h1v1h-1z M57,23h1v1h-1z M58,23h1v1h-1z M60,23h1v1h-1z M4,24h1v1h-1z M5,24h1v1h-1z M6,24h1v1h-1z M8,24h1v1h-1z M9,24h1v1h-1z M10,24h1v1h-1z M12,24h1v1h-1z M13,24h1v1h-1z M15,24h1v1h-1z M16,24h1v1h-1z M17,24h1v1h-1z M20,24h1v1h-1z M21,24h1v1h-1z M22,24h1v1h-1z M23,24h1v1h-1z M24,24h1v1h-1z M25,24h1v1h-1z M28,24h1v1h-1z M29,24h1v1h-1z M30,24h1v1h-1z M31,24h1v1h-1z M32,24h1v1h-1z M35,24h1v1h-1z M36,24h1v1h-1z M38,24h1v1h-1z M41,24h1v1h-1z M43,24h1v1h-1z M45,24h1v1h-1z M46,24h1v1h-1z M50,24h1v1h-1z M53,24h1v1h-1z M54,24h1v1h-1z M56,24h1v1h-1z M57,24h1v1h-1z M58,24h1v1h-1z M60,24h1v1h-1z M4,25h1v1h-1z M8,25h1v1h-1z M11,25h1v1h-1z M14,25h1v1h-1z M17,25h1v1h-1z M18,25h1v1h-1z M20,25h1v1h-1z M23,25h1v1h-1z M24,25h1v1h-1z M25,25h1v1h-1z M27,25h1v1h-1z M29,25h1v1h-1z M30,25h1v1h-1z M33,25h1v1h-1z M36,25h1v1h-1z M38,25h1v1h-1z M41,25h1v1h-1z M42,25h1v1h-1z M45,25h1v1h-1z M47,25h1v1h-1z M48,25h1v1h-1z M49,25h1v1h-1z M52,25h1v1h-1z M56,25h1v1h-1z M58,25h1v1h-1z M7,26h1v1h-1z M8,26h1v1h-1z M10,26h1v1h-1z M11,26h1v1h-1z M15,26h1v1h-1z M16,26h1v1h-1z M20,26h1v1h-1z M23,26h1v1h-1z M24,26h1v1h-1z M25,26h1v1h-1z M26,26h1v1h-1z M27,26h1v1h-1z M28,26h1v1h-1z M30,26h1v1h-1z M31,26h1v1h-1z M32,26h1v1h-1z M33,26h1v1h-1z M36,26h1v1h-1z M38,26h1v1h-1z M40,26h1v1h-1z M45,26h1v1h-1z M46,26h1v1h-1z M47,26h1v1h-1z M49,26h1v1h-1z M50,26h1v1h-1z M51,26h1v1h-1z M52,26h1v1h-1z M55,26h1v1h-1z M57,26h1v1h-1z M6,27h1v1h-1z M11,27h1v1h-1z M12,27h1v1h-1z M14,27h1v1h-1z M15,27h1v1h-1z M16,27h1v1h-1z M17,27h1v1h-1z M18,27h1v1h-1z M23,27h1v1h-1z M25,27h1v1h-1z M30,27h1v1h-1z M33,27h1v1h-1z M34,27h1v1h-1z M39,27h1v1h-1z M45,27h1v1h-1z M46,27h1v1h-1z M48,27h1v1h-1z M50,27h1v1h-1z M51,27h1v1h-1z M52,27h1v1h-1z M54,27h1v1h-1z M55,27h1v1h-1z M58,27h1v1h-1z M59,27h1v1h-1z M60,27h1v1h-1z M4,28h1v1h-1z M5,28h1v1h-1z M6,28h1v1h-1z M7,28h1v1h-1z M8,28h1v1h-1z M9,28h1v1h-1z M10,28h1v1h-1z M11,28h1v1h-1z M13,28h1v1h-1z M15,28h1v1h-1z M17,28h1v1h-1z M18,28h1v1h-1z M19,28h1v1h-1z M21,28h1v1h-1z M23,28h1v1h-1z M24,28h1v1h-1z M25,28h1v1h-1z M26,28h1v1h-1z M29,28h1v1h-1z M30,28h1v1h-1z M33,28h1v1h-1z M34,28h1v1h-1z M38,28h1v1h-1z M39,28h1v1h-1z M40,28h1v1h-1z M41,28h1v1h-1z M42,28h1v1h-1z M43,28h1v1h-1z M44,28h1v1h-1z M45,28h1v1h-1z M51,28h1v1h-1z M52,28h1v1h-1z M53,28h1v1h-1z M55,28h1v1h-1z M56,28h1v1h-1z M57,28h1v1h-1z M59,28h1v1h-1z M60,28h1v1h-1z M5,29h1v1h-1z M7,29h1v1h-1z M9,29h1v1h-1z M11,29h1v1h-1z M14,29h1v1h-1z M15,29h1v1h-1z M17,29h1v1h-1z M18,29h1v1h-1z M26,29h1v1h-1z M27,29h1v1h-1z M30,29h1v1h-1z M32,29h1v1h-1z M35,29h1v1h-1z M39,29h1v1h-1z M40,29h1v1h-1z M42,29h1v1h-1z M43,29h1v1h-1z M45,29h1v1h-1z M48,29h1v1h-1z M50,29h1v1h-1z M51,29h1v1h-1z M53,29h1v1h-1z M54,29h1v1h-1z M55,29h1v1h-1z M56,29h1v1h-1z M6,30h1v1h-1z M8,30h1v1h-1z M9,30h1v1h-1z M10,30h1v1h-1z M11,30h1v1h-1z M12,30h1v1h-1z M16,30h1v1h-1z M17,30h1v1h-1z M21,30h1v1h-1z M22,30h1v1h-1z M27,30h1v1h-1z M28,30h1v1h-1z M30,30h1v1h-1z M31,30h1v1h-1z M32,30h1v1h-1z M33,30h1v1h-1z M34,30h1v1h-1z M35,30h1v1h-1z M36,30h1v1h-1z M39,30h1v1h-1z M40,30h1v1h-1z M43,30h1v1h-1z M44,30h1v1h-1z M45,30h1v1h-1z M46,30h1v1h-1z M47,30h1v1h-1z M49,30h1v1h-1z M51,30h1v1h-1z M52,30h1v1h-1z M53,30h1v1h-1z M54,30h1v1h-1z M55,30h1v1h-1z M56,30h1v1h-1z M59,30h1v1h-1z M4,31h1v1h-1z M5,31h1v1h-1z M6,31h1v1h-1z M7,31h1v1h-1z M8,31h1v1h-1z M12,31h1v1h-1z M13,31h1v1h-1z M16,31h1v1h-1z M17,31h1v1h-1z M19,31h1v1h-1z M21,31h1v1h-1z M23,31h1v1h-1z M25,31h1v1h-1z M30,31h1v1h-1z M34,31h1v1h-1z M35,31h1v1h-1z M37,31h1v1h-1z M38,31h1v1h-1z M39,31h1v1h-1z M40,31h1v1h-1z M44,31h1v1h-1z M45,31h1v1h-1z M47,31h1v1h-1z M48,31h1v1h-1z M50,31h1v1h-1z M52,31h1v1h-1z M56,31h1v1h-1z M58,31h1v1h-1z M59,31h1v1h-1z M5,32h1v1h-1z M6,32h1v1h-1z M7,32h1v1h-1z M8,32h1v1h-1z M10,32h1v1h-1z M12,32h1v1h-1z M14,32h1v1h-1z M15,32h1v1h-1z M17,32h1v1h-1z M23,32h1v1h-1z M24,32h1v1h-1z M25,32h1v1h-1z M26,32h1v1h-1z M30,32h1v1h-1z M32,32h1v1h-1z M34,32h1v1h-1z M36,32h1v1h-1z M37,32h1v1h-1z M42,32h1v1h-1z M43,32h1v1h-1z M49,32h1v1h-1z M52,32h1v1h-1z M54,32h1v1h-1z M56,32h1v1h-1z M57,32h1v1h-1z M58,32h1v1h-1z M60,32h1v1h-1z M6,33h1v1h-1z M8,33h1v1h-1z M12,33h1v1h-1z M15,33h1v1h-1z M20,33h1v1h-1z M21,33h1v1h-1z M28,33h1v1h-1z M29,33h1v1h-1z M30,33h1v1h-1z M34,33h1v1h-1z M36,33h1v1h-1z M39,33h1v1h-1z M41,33h1v1h-1z M43,33h1v1h-1z M44,33h1v1h-1z M45,33h1v1h-1z M46,33h1v1h-1z M49,33h1v1h-1z M52,33h1v1h-1z M56,33h1v1h-1z M58,33h1v1h-1z M4,34h1v1h-1z M5,34h1v1h-1z M7,34h1v1h-1z M8,34h1v1h-1z M9,34h1v1h-1z M10,34h1v1h-1z M11,34h1v1h-1z M12,34h1v1h-1z M14,34h1v1h-1z M15,34h1v1h-1z M17,34h1v1h-1z M18,34h1v1h-1z M20,34h1v1h-1z M21,34h1v1h-1z M23,34h1v1h-1z M25,34h1v1h-1z M26,34h1v1h-1z M28,34h1v1h-1z M29,34h1v1h-1z M30,34h1v1h-1z M31,34h1v1h-1z M32,34h1v1h-1z M33,34h1v1h-1z M34,34h1v1h-1z M38,34h1v1h-1z M40,34h1v1h-1z M43,34h1v1h-1z M51,34h1v1h-1z M52,34h1v1h-1z M53,34h1v1h-1z M54,34h1v1h-1z M55,34h1v1h-1z M56,34h1v1h-1z M4,35h1v1h-1z M6,35h1v1h-1z M8,35h1v1h-1z M11,35h1v1h-1z M14,35h1v1h-1z M17,35h1v1h-1z M20,35h1v1h-1z M22,35h1v1h-1z M23,35h1v1h-1z M27,35h1v1h-1z M28,35h1v1h-1z M29,35h1v1h-1z M32,35h1v1h-1z M33,35h1v1h-1z M34,35h1v1h-1z M35,35h1v1h-1z M36,35h1v1h-1z M37,35h1v1h-1z M38,35h1v1h-1z M41,35h1v1h-1z M42,35h1v1h-1z M43,35h1v1h-1z M44,35h1v1h-1z M45,35h1v1h-1z M46,35h1v1h-1z M47,35h1v1h-1z M48,35h1v1h-1z M50,35h1v1h-1z M52,35h1v1h-1z M53,35h1v1h-1z M54,35h1v1h-1z M55,35h1v1h-1z M56,35h1v1h-1z M57,35h1v1h-1z M60,35h1v1h-1z M5,36h1v1h-1z M8,36h1v1h-1z M9,36h1v1h-1z M10,36h1v1h-1z M12,36h1v1h-1z M14,36h1v1h-1z M24,36h1v1h-1z M25,36h1v1h-1z M27,36h1v1h-1z M28,36h1v1h-1z M31,36h1v1h-1z M33,36h1v1h-1z M34,36h1v1h-1z M35,36h1v1h-1z M36,36h1v1h-1z M38,36h1v1h-1z M40,36h1v1h-1z M42,36h1v1h-1z M43,36h1v1h-1z M44,36h1v1h-1z M46,36h1v1h-1z M47,36h1v1h-1z M48,36h1v1h-1z M53,36h1v1h-1z M54,36h1v1h-1z M56,36h1v1h-1z M57,36h1v1h-1z M60,36h1v1h-1z M4,37h1v1h-1z M11,37h1v1h-1z M12,37h1v1h-1z M15,37h1v1h-1z M17,37h1v1h-1z M19,37h1v1h-1z M20,37h1v1h-1z M22,37h1v1h-1z M28,37h1v1h-1z M29,37h1v1h-1z M34,37h1v1h-1z M36,37h1v1h-1z M37,37h1v1h-1z M38,37h1v1h-1z M39,37h1v1h-1z M40,37h1v1h-1z M41,37h1v1h-1z M43,37h1v1h-1z M45,37h1v1h-1z M48,37h1v1h-1z M50,37h1v1h-1z M52,37h1v1h-1z M54,37h1v1h-1z M56,37h1v1h-1z M57,37h1v1h-1z M58,37h1v1h-1z M59,37h1v1h-1z M60,37h1v1h-1z M6,38h1v1h-1z M7,38h1v1h-1z M9,38h1v1h-1z M10,38h1v1h-1z M11,38h1v1h-1z M14,38h1v1h-1z M15,38h1v1h-1z M16,38h1v1h-1z M17,38h1v1h-1z M19,38h1v1h-1z M24,38h1v1h-1z M29,38h1v1h-1z M32,38h1v1h-1z M34,38h1v1h-1z M35,38h1v1h-1z M36,38h1v1h-1z M39,38h1v1h-1z M40,38h1v1h-1z M41,38h1v1h-1z M42,38h1v1h-1z M43,38h1v1h-1z M46,38h1v1h-1z M47,38h1v1h-1z M48,38h1v1h-1z M49,38h1v1h-1z M51,38h1v1h-1z M53,38h1v1h-1z M54,38h1v1h-1z M55,38h1v1h-1z M57,38h1v1h-1z M58,38h1v1h-1z M59,38h1v1h-1z M60,38h1v1h-1z M4,39h1v1h-1z M7,39h1v1h-1z M8,39h1v1h-1z M13,39h1v1h-1z M14,39h1v1h-1z M15,39h1v1h-1z M16,39h1v1h-1z M17,39h1v1h-1z M18,39h1v1h-1z M19,39h1v1h-1z M22,39h1v1h-1z M24,39h1v1h-1z M25,39h1v1h-1z M26,39h1v1h-1z M27,39h1v1h-1z M33,39h1v1h-1z M35,39h1v1h-1z M38,39h1v1h-1z M40,39h1v1h-1z M42,39h1v1h-1z M44,39h1v1h-1z M46,39h1v1h-1z M47,39h1v1h-1z M49,39h1v1h-1z M51,39h1v1h-1z M52,39h1v1h-1z M55,39h1v1h-1z M57,39h1v1h-1z M58,39h1v1h-1z M59,39h1v1h-1z M60,39h1v1h-1z M4,40h1v1h-1z M5,40h1v1h-1z M7,40h1v1h-1z M8,40h1v1h-1z M9,40h1v1h-1z M10,40h1v1h-1z M11,40h1v1h-1z M12,40h1v1h-1z M15,40h1v1h-1z M23,40h1v1h-1z M25,40h1v1h-1z M26,40h1v1h-1z M27,40h1v1h-1z M28,40h1v1h-1z M29,40h1v1h-1z M30,40h1v1h-1z M33,40h1v1h-1z M34,40h1v1h-1z M35,40h1v1h-1z M36,40h1v1h-1z M39,40h1v1h-1z M40,40h1v1h-1z M42,40h1v1h-1z M46,40h1v1h-1z M51,40h1v1h-1z M52,40h1v1h-1z M53,40h1v1h-1z M55,40h1v1h-1z M56,40h1v1h-1z M59,40h1v1h-1z M60,40h1v1h-1z M4,41h1v1h-1z M6,41h1v1h-1z M9,41h1v1h-1z M11,41h1v1h-1z M14,41h1v1h-1z M15,41h1v1h-1z M17,41h1v1h-1z M18,41h1v1h-1z M19,41h1v1h-1z M22,41h1v1h-1z M25,41h1v1h-1z M29,41h1v1h-1z M31,41h1v1h-1z M32,41h1v1h-1z M35,41h1v1h-1z M36,41h1v1h-1z M37,41h1v1h-1z M42,41h1v1h-1z M47,41h1v1h-1z M48,41h1v1h-1z M50,41h1v1h-1z M51,41h1v1h-1z M53,41h1v1h-1z M56,41h1v1h-1z M57,41h1v1h-1z M58,41h1v1h-1z M59,41h1v1h-1z M60,41h1v1h-1z M6,42h1v1h-1z M8,42h1v1h-1z M10,42h1v1h-1z M11,42h1v1h-1z M14,42h1v1h-1z M16,42h1v1h-1z M17,42h1v1h-1z M18,42h1v1h-1z M20,42h1v1h-1z M22,42h1v1h-1z M23,42h1v1h-1z M25,42h1v1h-1z M28,42h1v1h-1z M31,42h1v1h-1z M33,42h1v1h-1z M37,42h1v1h-1z M39,42h1v1h-1z M40,42h1v1h-1z M42,42h1v1h-1z M46,42h1v1h-1z M47,42h1v1h-1z M48,42h1v1h-1z M49,42h1v1h-1z M50,42h1v1h-1z M51,42h1v1h-1z M53,42h1v1h-1z M55,42h1v1h-1z M57,42h1v1h-1z M58,42h1v1h-1z M59,42h1v1h-1z M5,43h1v1h-1z M6,43h1v1h-1z M8,43h1v1h-1z M9,43h1v1h-1z M14,43h1v1h-1z M15,43h1v1h-1z M16,43h1v1h-1z M17,43h1v1h-1z M18,43h1v1h-1z M19,43h1v1h-1z M21,43h1v1h-1z M25,43h1v1h-1z M27,43h1v1h-1z M30,43h1v1h-1z M35,43h1v1h-1z M36,43h1v1h-1z M37,43h1v1h-1z M38,43h1v1h-1z M39,43h1v1h-1z M40,43h1v1h-1z M43,43h1v1h-1z M45,43h1v1h-1z M46,43h1v1h-1z M47,43h1v1h-1z M48,43h1v1h-1z M49,43h1v1h-1z M50,43h1v1h-1z M51,43h1v1h-1z M54,43h1v1h-1z M55,43h1v1h-1z M57,43h1v1h-1z M7,44h1v1h-1z M10,44h1v1h-1z M11,44h1v1h-1z M12,44h1v1h-1z M13,44h1v1h-1z M15,44h1v1h-1z M17,44h1v1h-1z M18,44h1v1h-1z M20,44h1v1h-1z M21,44h1v1h-1z M24,44h1v1h-1z M26,44h1v1h-1z M29,44h1v1h-1z M32,44h1v1h-1z M33,44h1v1h-1z M34,44h1v1h-1z M36,44h1v1h-1z M37,44h1v1h-1z M39,44h1v1h-1z M40,44h1v1h-1z M42,44h1v1h-1z M48,44h1v1h-1z M50,44h1v1h-1z M51,44h1v1h-1z M52,44h1v1h-1z M53,44h1v1h-1z M58,44h1v1h-1z M59,44h1v1h-1z M60,44h1v1h-1z M5,45h1v1h-1z M6,45h1v1h-1z M7,45h1v1h-1z M8,45h1v1h-1z M11,45h1v1h-1z M12,45h1v1h-1z M15,45h1v1h-1z M16,45h1v1h-1z M18,45h1v1h-1z M19,45h1v1h-1z M20,45h1v1h-1z M22,45h1v1h-1z M23,45h1v1h-1z M27,45h1v1h-1z M28,45h1v1h-1z M34,45h1v1h-1z M37,45h1v1h-1z M38,45h1v1h-1z M40,45h1v1h-1z M41,45h1v1h-1z M43,45h1v1h-1z M46,45h1v1h-1z M49,45h1v1h-1z M50,45h1v1h-1z M52,45h1v1h-1z M53,45h1v1h-1z M55,45h1v1h-1z M56,45h1v1h-1z M57,45h1v1h-1z M59,45h1v1h-1z M60,45h1v1h-1z M7,46h1v1h-1z M10,46h1v1h-1z M13,46h1v1h-1z M16,46h1v1h-1z M20,46h1v1h-1z M21,46h1v1h-1z M22,46h1v1h-1z M23,46h1v1h-1z M25,46h1v1h-1z M29,46h1v1h-1z M31,46h1v1h-1z M33,46h1v1h-1z M34,46h1v1h-1z M36,46h1v1h-1z M40,46h1v1h-1z M41,46h1v1h-1z M44,46h1v1h-1z M46,46h1v1h-1z M48,46h1v1h-1z M4,47h1v1h-1z M5,47h1v1h-1z M7,47h1v1h-1z M9,47h1v1h-1z M11,47h1v1h-1z M14,47h1v1h-1z M16,47h1v1h-1z M18,47h1v1h-1z M23,47h1v1h-1z M24,47h1v1h-1z M25,47h1v1h-1z M26,47h1v1h-1z M29,47h1v1h-1z M30,47h1v1h-1z M31,47h1v1h-1z M32,47h1v1h-1z M33,47h1v1h-1z M35,47h1v1h-1z M38,47h1v1h-1z M40,47h1v1h-1z M42,47h1v1h-1z M44,47h1v1h-1z M45,47h1v1h-1z M47,47h1v1h-1z M48,47h1v1h-1z M50,47h1v1h-1z M51,47h1v1h-1z M52,47h1v1h-1z M53,47h1v1h-1z M54,47h1v1h-1z M56,47h1v1h-1z M57,47h1v1h-1z M58,47h1v1h-1z M60,47h1v1h-1z M4,48h1v1h-1z M5,48h1v1h-1z M7,48h1v1h-1z M9,48h1v1h-1z M10,48h1v1h-1z M11,48h1v1h-1z M12,48h1v1h-1z M14,48h1v1h-1z M16,48h1v1h-1z M17,48h1v1h-1z M18,48h1v1h-1z M21,48h1v1h-1z M24,48h1v1h-1z M26,48h1v1h-1z M27,48h1v1h-1z M32,48h1v1h-1z M34,48h1v1h-1z M35,48h1v1h-1z M36,48h1v1h-1z M37,48h1v1h-1z M38,48h1v1h-1z M39,48h1v1h-1z M40,48h1v1h-1z M42,48h1v1h-1z M44,48h1v1h-1z M45,48h1v1h-1z M46,48h1v1h-1z M49,48h1v1h-1z M52,48h1v1h-1z M54,48h1v1h-1z M55,48h1v1h-1z M58,48h1v1h-1z M59,48h1v1h-1z M60,48h1v1h-1z M4,49h1v1h-1z M5,49h1v1h-1z M7,49h1v1h-1z M9,49h1v1h-1z M15,49h1v1h-1z M18,49h1v1h-1z M21,49h1v1h-1z M24,49h1v1h-1z M25,49h1v1h-1z M28,49h1v1h-1z M29,49h1v1h-1z M30,49h1v1h-1z M32,49h1v1h-1z M33,49h1v1h-1z M34,49h1v1h-1z M36,49h1v1h-1z M43,49h1v1h-1z M44,49h1v1h-1z M46,49h1v1h-1z M48,49h1v1h-1z M50,49h1v1h-1z M52,49h1v1h-1z M53,49h1v1h-1z M55,49h1v1h-1z M56,49h1v1h-1z M59,49h1v1h-1z M4,50h1v1h-1z M6,50h1v1h-1z M9,50h1v1h-1z M10,50h1v1h-1z M12,50h1v1h-1z M13,50h1v1h-1z M14,50h1v1h-1z M15,50h1v1h-1z M18,50h1v1h-1z M19,50h1v1h-1z M20,50h1v1h-1z M21,50h1v1h-1z M23,50h1v1h-1z M24,50h1v1h-1z M27,50h1v1h-1z M28,50h1v1h-1z M29,50h1v1h-1z M31,50h1v1h-1z M33,50h1v1h-1z M37,50h1v1h-1z M38,50h1v1h-1z M41,50h1v1h-1z M42,50h1v1h-1z M43,50h1v1h-1z M44,50h1v1h-1z M45,50h1v1h-1z M48,50h1v1h-1z M49,50h1v1h-1z M50,50h1v1h-1z M51,50h1v1h-1z M53,50h1v1h-1z M55,50h1v1h-1z M57,50h1v1h-1z M58,50h1v1h-1z M59,50h1v1h-1z M4,51h1v1h-1z M5,51h1v1h-1z M6,51h1v1h-1z M7,51h1v1h-1z M8,51h1v1h-1z M13,51h1v1h-1z M16,51h1v1h-1z M17,51h1v1h-1z M18,51h1v1h-1z M20,51h1v1h-1z M21,51h1v1h-1z M23,51h1v1h-1z M24,51h1v1h-1z M25,51h1v1h-1z M27,51h1v1h-1z M29,51h1v1h-1z M30,51h1v1h-1z M32,51h1v1h-1z M35,51h1v1h-1z M36,51h1v1h-1z M43,51h1v1h-1z M44,51h1v1h-1z M45,51h1v1h-1z M46,51h1v1h-1z M47,51h1v1h-1z M48,51h1v1h-1z M49,51h1v1h-1z M50,51h1v1h-1z M52,51h1v1h-1z M53,51h1v1h-1z M54,51h1v1h-1z M55,51h1v1h-1z M56,51h1v1h-1z M59,51h1v1h-1z M60,51h1v1h-1z M10,52h1v1h-1z M12,52h1v1h-1z M17,52h1v1h-1z M21,52h1v1h-1z M23,52h1v1h-1z M25,52h1v1h-1z M30,52h1v1h-1z M31,52h1v1h-1z M32,52h1v1h-1z M33,52h1v1h-1z M34,52h1v1h-1z M35,52h1v1h-1z M38,52h1v1h-1z M42,52h1v1h-1z M44,52h1v1h-1z M45,52h1v1h-1z M46,52h1v1h-1z M47,52h1v1h-1z M49,52h1v1h-1z M51,52h1v1h-1z M52,52h1v1h-1z M53,52h1v1h-1z M54,52h1v1h-1z M55,52h1v1h-1z M56,52h1v1h-1z M59,52h1v1h-1z M60,52h1v1h-1z M12,53h1v1h-1z M13,53h1v1h-1z M16,53h1v1h-1z M18,53h1v1h-1z M19,53h1v1h-1z M20,53h1v1h-1z M22,53h1v1h-1z M23,53h1v1h-1z M24,53h1v1h-1z M28,53h1v1h-1z M29,53h1v1h-1z M30,53h1v1h-1z M34,53h1v1h-1z M35,53h1v1h-1z M37,53h1v1h-1z M38,53h1v1h-1z M40,53h1v1h-1z M41,53h1v1h-1z M43,53h1v1h-1z M44,53h1v1h-1z M47,53h1v1h-1z M50,53h1v1h-1z M51,53h1v1h-1z M52,53h1v1h-1z M56,53h1v1h-1z M57,53h1v1h-1z M58,53h1v1h-1z M59,53h1v1h-1z M60,53h1v1h-1z M4,54h1v1h-1z M5,54h1v1h-1z M6,54h1v1h-1z M7,54h1v1h-1z M8,54h1v1h-1z M9,54h1v1h-1z M10,54h1v1h-1z M12,54h1v1h-1z M14,54h1v1h-1z M15,54h1v1h-1z M16,54h1v1h-1z M21,54h1v1h-1z M23,54h1v1h-1z M24,54h1v1h-1z M25,54h1v1h-1z M29,54h1v1h-1z M30,54h1v1h-1z M32,54h1v1h-1z M34,54h1v1h-1z M35,54h1v1h-1z M36,54h1v1h-1z M37,54h1v1h-1z M38,54h1v1h-1z M39,54h1v1h-1z M40,54h1v1h-1z M42,54h1v1h-1z M43,54h1v1h-1z M44,54h1v1h-1z M45,54h1v1h-1z M46,54h1v1h-1z M47,54h1v1h-1z M48,54h1v1h-1z M49,54h1v1h-1z M52,54h1v1h-1z M54,54h1v1h-1z M56,54h1v1h-1z M57,54h1v1h-1z M60,54h1v1h-1z M4,55h1v1h-1z M10,55h1v1h-1z M14,55h1v1h-1z M15,55h1v1h-1z M16,55h1v1h-1z M17,55h1v1h-1z M19,55h1v1h-1z M20,55h1v1h-1z M21,55h1v1h-1z M22,55h1v1h-1z M23,55h1v1h-1z M25,55h1v1h-1z M26,55h1v1h-1z M28,55h1v1h-1z M30,55h1v1h-1z M34,55h1v1h-1z M35,55h1v1h-1z M36,55h1v1h-1z M40,55h1v1h-1z M41,55h1v1h-1z M44,55h1v1h-1z M45,55h1v1h-1z M51,55h1v1h-1z M52,55h1v1h-1z M56,55h1v1h-1z M58,55h1v1h-1z M59,55h1v1h-1z M60,55h1v1h-1z M4,56h1v1h-1z M6,56h1v1h-1z M7,56h1v1h-1z M8,56h1v1h-1z M10,56h1v1h-1z M12,56h1v1h-1z M14,56h1v1h-1z M15,56h1v1h-1z M17,56h1v1h-1z M18,56h1v1h-1z M20,56h1v1h-1z M21,56h1v1h-1z M23,56h1v1h-1z M25,56h1v1h-1z M26,56h1v1h-1z M28,56h1v1h-1z M29,56h1v1h-1z M30,56h1v1h-1z M31,56h1v1h-1z M32,56h1v1h-1z M33,56h1v1h-1z M34,56h1v1h-1z M35,56h1v1h-1z M36,56h1v1h-1z M37,56h1v1h-1z M38,56h1v1h-1z M39,56h1v1h-1z M43,56h1v1h-1z M44,56h1v1h-1z M45,56h1v1h-1z M46,56h1v1h-1z M47,56h1v1h-1z M52,56h1v1h-1z M53,56h1v1h-1z M54,56h1v1h-1z M55,56h1v1h-1z M56,56h1v1h-1z M59,56h1v1h-1z M60,56h1v1h-1z M4,57h1v1h-1z M6,57h1v1h-1z M7,57h1v1h-1z M8,57h1v1h-1z M10,57h1v1h-1z M13,57h1v1h-1z M14,57h1v1h-1z M15,57h1v1h-1z M17,57h1v1h-1z M19,57h1v1h-1z M22,57h1v1h-1z M24,57h1v1h-1z M25,57h1v1h-1z M27,57h1v1h-1z M29,57h1v1h-1z M31,57h1v1h-1z M34,57h1v1h-1z M35,57h1v1h-1z M38,57h1v1h-1z M39,57h1v1h-1z M40,57h1v1h-1z M41,57h1v1h-1z M44,57h1v1h-1z M45,57h1v1h-1z M47,57h1v1h-1z M53,57h1v1h-1z M54,57h1v1h-1z M57,57h1v1h-1z M58,57h1v1h-1z M59,57h1v1h-1z M4,58h1v1h-1z M6,58h1v1h-1z M7,58h1v1h-1z M8,58h1v1h-1z M10,58h1v1h-1z M13,58h1v1h-1z M16,58h1v1h-1z M18,58h1v1h-1z M22,58h1v1h-1z M25,58h1v1h-1z M26,58h1v1h-1z M27,58h1v1h-1z M28,58h1v1h-1z M31,58h1v1h-1z M33,58h1v1h-1z M34,58h1v1h-1z M36,58h1v1h-1z M37,58h1v1h-1z M38,58h1v1h-1z M41,58h1v1h-1z M42,58h1v1h-1z M45,58h1v1h-1z M46,58h1v1h-1z M49,58h1v1h-1z M52,58h1v1h-1z M53,58h1v1h-1z M54,58h1v1h-1z M56,58h1v1h-1z M57,58h1v1h-1z M58,58h1v1h-1z M4,59h1v1h-1z M10,59h1v1h-1z M14,59h1v1h-1z M17,59h1v1h-1z M18,59h1v1h-1z M21,59h1v1h-1z M22,59h1v1h-1z M24,59h1v1h-1z M25,59h1v1h-1z M28,59h1v1h-1z M29,59h1v1h-1z M32,59h1v1h-1z M34,59h1v1h-1z M35,59h1v1h-1z M40,59h1v1h-1z M41,59h1v1h-1z M43,59h1v1h-1z M45,59h1v1h-1z M51,59h1v1h-1z M53,59h1v1h-1z M55,59h1v1h-1z M56,59h1v1h-1z M57,59h1v1h-1z M58,59h1v1h-1z M60,59h1v1h-1z M4,60h1v1h-1z M5,60h1v1h-1z M6,60h1v1h-1z M7,60h1v1h-1z M8,60h1v1h-1z M9,60h1v1h-1z M10,60h1v1h-1z M12,60h1v1h-1z M14,60h1v1h-1z M17,60h1v1h-1z M18,60h1v1h-1z M19,60h1v1h-1z M20,60h1v1h-1z M21,60h1v1h-1z M23,60h1v1h-1z M24,60h1v1h-1z M27,60h1v1h-1z M30,60h1v1h-1z M31,60h1v1h-1z M33,60h1v1h-1z M34,60h1v1h-1z M35,60h1v1h-1z M37,60h1v1h-1z M40,60h1v1h-1z M42,60h1v1h-1z M46,60h1v1h-1z M47,60h1v1h-1z M48,60h1v1h-1z M52,60h1v1h-1z M53,60h1v1h-1z M56,60h1v1h-1z M59,60h1v1h-1z M60,60h1v1h-1z" fill="#000000"/>
</svg>
